<svg xmlns="http://www.w3.org/2000/svg" version="1.1" xmlns:xlink="http://www.w3.org/1999/xlink" viewBox="0 0 6.212353259752789 1.9984623388361384"><g transform="matrix(1,0,0,1,0.28411886473056924,0.5746706225430691)"><g clip-path="url(#SvgjsClipPath1001)"><g clip-path="url(#SvgjsClipPath10007a0b6a90-385f-476b-a63b-9ea641d466c4)"><path d=" M 1.9540134243389686 0.5563267377342298 C 1.9087370014766851 0.6094561109227167 1.873177771240446 0.6701488284987066 1.848967125400061 0.7356204207399016 C 1.8443839535440896 0.7519823442657262 1.8664290101713208 0.7585362800197678 1.8749537098234312 0.7460242208529609 C 1.8932863972473248 0.7185251897171218 1.904835990324376 0.6856180157912339 1.9207854283831636 0.6564690427872446 C 1.937209377676785 0.6272205403296597 1.9551858053939553 0.5988713313424974 1.9746376976908517 0.5715428682960569 C 1.9830249021872792 0.5596266214705302 1.9627214508653184 0.5444563226272591 1.9540134243389686 0.5563267377342298 Z" fill="#2b2722" transform="matrix(1,0,0,1,0,0)" fill-rule="evenodd"></path></g><g clip-path="url(#SvgjsClipPath10007a0b6a90-385f-476b-a63b-9ea641d466c4)"><path d=" M 2.027573332627338 0.5350608203225142 C 1.965270145180187 0.624857790303177 1.909868694454178 0.719251689065053 1.8618458383153471 0.8174300383690224 C 1.8568043492737756 0.8300795926915098 1.8727079556140032 0.8459831990317369 1.883020092289942 0.8330128226793326 C 1.9460749985012755 0.7423484244734125 2.0020045701932485 0.6469310428498738 2.0503058650329633 0.5476187112078826 C 2.058647237810837 0.5329525612687664 2.0362355274351285 0.5208071558504374 2.027573332627338 0.5350608203225142 Z" fill="#2b2722" transform="matrix(1,0,0,1,0,0)" fill-rule="evenodd"></path></g><g clip-path="url(#SvgjsClipPath10007a0b6a90-385f-476b-a63b-9ea641d466c4)"><path d=" M 2.0920127289223216 0.5300651629995032 C 2.0301857405852446 0.6349739667827301 1.957863288697986 0.7393327899432401 1.9064401004739662 0.8496497365165153 C 1.9028837422456644 0.8561296492551907 1.9052537513733891 0.864265654400152 1.911733664052816 0.8678220127364106 C 1.9182135767322417 0.8713783710726687 1.9263495819166887 0.8690083620804895 1.929905940360901 0.8625284494603117 C 1.9995701525873424 0.7627069664087035 2.0536515804878257 0.647944343135134 2.1136453000825166 0.541706419513675 C 2.115917920105513 0.5358808767125403 2.113487404620613 0.5292753418236604 2.1079809471807356 0.5263121210827094 C 2.102474489740859 0.5233489003417587 2.09562269176564 0.5249592919703203 2.0920127289223216 0.5300651629995032 Z" fill="#2b2722" transform="matrix(1,0,0,1,0,0)" fill-rule="evenodd"></path></g><g clip-path="url(#SvgjsClipPath10007a0b6a90-385f-476b-a63b-9ea641d466c4)"><path d=" M 2.1513189727386166 0.5150781910304711 C 2.1179534816271306 0.5779898633734633 2.083579692707332 0.6403057233751788 2.0481976059792193 0.7020257710356184 C 2.013335098956558 0.7549015132246927 1.9828620692013719 0.8105439166509137 1.9570841494824716 0.8683949094074465 C 1.9532801168420135 0.8786612143648259 1.9687254059966433 0.8863609430828608 1.975416836906364 0.8784320557720272 C 2.059609703900591 0.7804896732098795 2.1129119925855613 0.6409320901954956 2.1707516214079425 0.525894476610568 C 2.1773513888805427 0.513199090569522 2.1580562353668964 0.5024744684265443 2.1513189727386166 0.5150781910304711 Z" fill="#2b2722" transform="matrix(1,0,0,1,0,0)" fill-rule="evenodd"></path></g><g clip-path="url(#SvgjsClipPath10007a0b6a90-385f-476b-a63b-9ea641d466c4)"><path d=" M 2.1951799274002792 0.5319442634604521 C 2.132453138017588 0.6322313163881791 2.074830407050858 0.7356218230524035 2.02253184358576 0.8417208492056957 C 2.018342681351422 0.8493144969618288 2.0211025621145415 0.8588663517317928 2.0286962098265486 0.8630555140461519 C 2.0362898575385553 0.8672446763605105 2.0458417123376 0.8644847956980374 2.0500308747319704 0.8568911480301703 C 2.1117338297825863 0.756001921909662 2.168330904603603 0.6520774553329108 2.2196082333926164 0.5455104521541332 C 2.2233544329570405 0.5387647617222491 2.220922865175173 0.5302594043755475 2.2141771747432886 0.5265132048111241 C 2.2074314843114053 0.5227670052467006 2.198926126964704 0.5251985730285682 2.1951799274002806 0.5319442634604519 Z" fill="#2b2722" transform="matrix(1,0,0,1,0,0)" fill-rule="evenodd"></path></g><g clip-path="url(#SvgjsClipPath10007a0b6a90-385f-476b-a63b-9ea641d466c4)"><path d=" M 2.2767145547180423 0.5418897463879139 C 2.2257955153981803 0.6460652426741853 2.160210326139203 0.7484991336551864 2.117495164441534 0.8560661771148775 C 2.1141919276634438 0.8620525027701896 2.116367000953554 0.8695831810482101 2.122353326608865 0.8728864178262995 C 2.1283396522641773 0.8761896546043894 2.1358703305421978 0.8740145813142796 2.139173567320288 0.8680282556589675 C 2.2003621005691825 0.7676364238320753 2.253332844240119 0.6624612956289608 2.2975679866627203 0.5535310029020901 C 2.304030258979643 0.5396439921784871 2.2834976490648824 0.5280943991014347 2.2767145547180423 0.5418897463879139 Z" fill="#2b2722" transform="matrix(1,0,0,1,0,0)" fill-rule="evenodd"></path></g><g clip-path="url(#SvgjsClipPath10007a0b6a90-385f-476b-a63b-9ea641d466c4)"><path d=" M 2.3452788056834026 0.5353816423524324 C 2.26860234053297 0.6802098730011855 2.1816137387065986 0.8241214692787447 2.1166243617888987 0.9744495061546657 C 2.11351743674635 0.9805981720561464 2.1158196387910295 0.9881030168702588 2.1218400131169184 0.9914517731415095 C 2.1278603874428055 0.9948005294127596 2.1354507725759815 0.992798309777332 2.139036072164608 0.9869157336029127 C 2.2240997418114703 0.8467165065286922 2.29096821919012 0.6924927735751937 2.364619790915609 0.5460146010582901 C 2.3708987363582925 0.5334108784543639 2.3519244048745622 0.5227779197485058 2.3452788056834026 0.5353816423524324 Z" fill="#2b2722" transform="matrix(1,0,0,1,0,0)" fill-rule="evenodd"></path></g><g clip-path="url(#SvgjsClipPath10007a0b6a90-385f-476b-a63b-9ea641d466c4)"><path d=" M 2.3659489107538407 0.6089415506408021 C 2.297567986662721 0.7629819567200619 2.212504317015857 0.9077185239316957 2.1408235091884364 1.0597423343943269 C 2.138660404738677 1.0660518843322797 2.141337792969714 1.0730039086154397 2.147174305537668 1.0762326176955845 C 2.153010818105622 1.079461326775729 2.1603228401181775 1.0780353592230676 2.1645185076838183 1.0728502059024105 C 2.251870913425588 0.9289389531568554 2.326008694450058 0.7774113303636169 2.3860232034830045 0.6201244899693746 C 2.391614673147291 0.6067416281499354 2.371998697603726 0.5952836985100022 2.3659489107538407 0.6089415506408021 Z" fill="#2b2722" transform="matrix(1,0,0,1,0,0)" fill-rule="evenodd"></path></g><g clip-path="url(#SvgjsClipPath10007a0b6a90-385f-476b-a63b-9ea641d466c4)"><path d=" M 2.3928979612669634 0.6709060341335602 C 2.3287335552833386 0.8129843616687297 2.2511404557617127 0.9462629992404304 2.1808804312096424 1.08494977960218 C 2.177184856059642 1.0916195335446397 2.1795959043022535 1.1000222930063388 2.186265658205774 1.1037178682266173 C 2.192935412109294 1.1074134434468963 2.2013381715963978 1.105002395292821 2.2050337468869543 1.0983326414282395 C 2.28587444122241 0.965647523313763 2.3554022019243814 0.8263926941062648 2.4128805905590065 0.6820431417435725 C 2.4187470505346518 0.6683394578942148 2.3989477481168486 0.6571565185656403 2.3928979612669634 0.6709060341335602 Z" fill="#2b2722" transform="matrix(1,0,0,1,0,0)" fill-rule="evenodd"></path></g><g clip-path="url(#SvgjsClipPath10007a0b6a90-385f-476b-a63b-9ea641d466c4)"><path d=" M 2.412101451343492 0.7447409327332882 C 2.3622823732690637 0.8618868053719636 2.2933514685552248 0.9725704056937169 2.2465114521871796 1.0903120906736685 C 2.243931214878817 1.0957918579538184 2.246041933422582 1.102333684151847 2.251338286212288 1.1052720716584647 C 2.2566346390019936 1.108210459165082 2.2633021758728558 1.1065387609710595 2.266585744916341 1.101449198283683 C 2.335018259498215 0.9931429522815572 2.390881114162089 0.8773885977784927 2.43309237844385 0.7564280209660187 C 2.438913006700935 0.7421285247753836 2.418151238193376 0.7304872682612117 2.412101451343492 0.7447409327332882 Z" fill="#2b2722" transform="matrix(1,0,0,1,0,0)" fill-rule="evenodd"></path></g><g clip-path="url(#SvgjsClipPath10007a0b6a90-385f-476b-a63b-9ea641d466c4)"><path d=" M 2.437721382018382 0.8092719924653914 C 2.397985282027094 0.9059310869078664 2.3399164946119133 0.9998861099553172 2.308017618494339 1.098790958607219 C 2.3030677928898884 1.1140070891690503 2.3242878785830436 1.1194152319590982 2.332125102456759 1.1083239560676432 C 2.38691487785894 1.0174609102952266 2.4306431969216336 0.9203723482665166 2.462378846603518 0.8191258119557344 C 2.4678786528306853 0.8049638109207763 2.443450346838348 0.7952933183046728 2.437721382018382 0.8092719924653914 Z" fill="#2b2722" transform="matrix(1,0,0,1,0,0)" fill-rule="evenodd"></path></g><g clip-path="url(#SvgjsClipPath10007a0b6a90-385f-476b-a63b-9ea641d466c4)"><path d=" M 2.4564207231907513 0.8980480313155922 C 2.4266759378454856 0.9692246902388565 2.3857023814530844 1.0374681191742976 2.359807460466836 1.1098364027801142 C 2.3545826445510265 1.1249608699048261 2.3763527108668994 1.1306440030062328 2.384052439584935 1.1194152319590982 C 2.4237930338308042 1.0538785382699616 2.4560760598311564 0.9841010835006266 2.4802990485603713 0.9113850614164748 C 2.486944647751535 0.8952064647648891 2.463387144411832 0.8817319395083277 2.4564207231907513 0.8980480313155922 Z" fill="#2b2722" transform="matrix(1,0,0,1,0,0)" fill-rule="evenodd"></path></g><g clip-path="url(#SvgjsClipPath10007a0b6a90-385f-476b-a63b-9ea641d466c4)"><path d=" M 2.4921694636673433 0.9802243026931919 C 2.4789240970035813 1.0004819222965935 2.4662287109625343 1.0210145322113537 2.4542208006998845 1.0420512910302708 C 2.4411334759932837 1.060413592054735 2.4317894405111664 1.0811729242175065 2.4267217695640437 1.1031449718703934 C 2.4256168917004794 1.10827468271999 2.428011150849503 1.1135211999025634 2.4326100785626106 1.1160479670828694 C 2.4372090062757197 1.1185747342631749 2.44292129520428 1.1177821595875956 2.4466585671375287 1.1140987526061692 C 2.4607458987166884 1.0966157822391556 2.47213183287665 1.077119108005952 2.480436543716053 1.056259123783787 C 2.4916653147631864 1.034993206372072 2.503810720181515 1.014139774427394 2.5164144427854414 0.9935155010755145 C 2.525397459623149 0.9782077070765637 2.5016566294092084 0.9656039844726377 2.4921694636673433 0.9802243026931919 Z" fill="#2b2722" transform="matrix(1,0,0,1,0,0)" fill-rule="evenodd"></path></g><g clip-path="url(#SvgjsClipPath10007a0b6a90-385f-476b-a63b-9ea641d466c4)"><path d=" M 2.507156435636375 1.0421429544673901 C 2.5013816390978487 1.0540592012929206 2.4952860205294054 1.0658379529627715 2.4888237482124818 1.077387546039824 C 2.481802837871637 1.0877196820331196 2.4763652111972387 1.0990429216704314 2.472690983279457 1.1109821957441075 C 2.4710410414113055 1.118636092743583 2.4802990485603713 1.1276191095812904 2.48754046009281 1.1219359764798837 C 2.5060493965031827 1.1026469725415025 2.5204831902023255 1.079827238226661 2.529980631479121 1.0548383405084358 C 2.5375428650414777 1.0398513685394035 2.5146728374801723 1.0273393093725969 2.507156435636375 1.0421429544673901 Z" fill="#2b2722" transform="matrix(1,0,0,1,0,0)" fill-rule="evenodd"></path></g><g clip-path="url(#SvgjsClipPath10007a0b6a90-385f-476b-a63b-9ea641d466c4)"><path d=" M 2.8343032427157437 0.5445479860643789 C 2.7549685378888475 0.7259040964052387 2.6580802848535736 0.9000646269322207 2.5818163051701792 1.082016549614357 C 2.5788675110254142 1.0881445921256319 2.5812112961671847 1.0955089581959783 2.5871595380334487 1.0988054276147055 C 2.593107779899714 1.102101897033433 2.600594791042595 1.1001856818693048 2.6042280155458886 1.0944369453440448 C 2.7009544182793084 0.9213901560313867 2.784705087207345 0.7414035803526798 2.8547900209119406 0.5559600839857565 C 2.86051898573191 0.5422105684178323 2.8403988612841884 0.5306609753407796 2.8343032427157437 0.5445479860643789 Z" fill="#2b2722" transform="matrix(1,0,0,1,0,0)" fill-rule="evenodd"></path></g><g clip-path="url(#SvgjsClipPath10007a0b6a90-385f-476b-a63b-9ea641d466c4)"><path d=" M 2.8872388776522344 0.5637056444223467 C 2.8105165807832426 0.7440992886734524 2.717157370077068 0.9149141037455738 2.6329186713642803 1.0914578836376623 C 2.628969974526104 1.0986465368558798 2.6315964781217067 1.107675142965768 2.638785131339925 1.1116238398039444 C 2.6459737845581435 1.1155725366421207 2.655002390668032 1.1129460330465162 2.6589510875062086 1.1057573798282982 C 2.7572840556550484 0.9365455759196467 2.8406479770636843 0.7590675291091026 2.9080923095969116 0.57534690093652 C 2.9135004523869608 0.5613223950572406 2.8932428327835593 0.5494978116688296 2.8872388776522344 0.5637056444223467 Z" fill="#2b2722" transform="matrix(1,0,0,1,0,0)" fill-rule="evenodd"></path></g><g clip-path="url(#SvgjsClipPath10007a0b6a90-385f-476b-a63b-9ea641d466c4)"><path d=" M 2.9381579169720973 0.5929921125820155 C 2.8600148368277534 0.7625694712530241 2.776555277330481 0.9295802536846881 2.6934623715816874 1.0968660264277101 C 2.684296027869742 1.1146487332288864 2.711153414945744 1.1295898734793588 2.7205489172504898 1.111807166678183 C 2.807995836262458 0.9468129798631472 2.8855431040655244 0.7762273233838243 2.958553031731179 0.6042667153477097 C 2.9643278282697043 0.5907005266540288 2.9445285258518994 0.579242597014096 2.9381579169720973 0.5929921125820155 Z" fill="#2b2722" transform="matrix(1,0,0,1,0,0)" fill-rule="evenodd"></path></g><g clip-path="url(#SvgjsClipPath10007a0b6a90-385f-476b-a63b-9ea641d466c4)"><path d=" M 2.9818813764780803 0.6258076230707836 C 2.9111630347404134 0.7840645472575386 2.8193162707467105 0.9350800599118559 2.7532269325835763 1.0947577673739626 C 2.7504643258403583 1.1006722747841127 2.7527516520619515 1.1077159907305592 2.7584620394457664 1.1108790382877678 C 2.7641724268295818 1.1140420858449764 2.771356842188848 1.1122448736917323 2.7749053354623303 1.1067656776366124 C 2.8714269347491266 0.966153965095354 2.9373329460380218 0.7943308522149185 3.0035597793568343 0.6378155333334334 C 3.009701229643838 0.6234243737056775 2.9885728073878024 0.6113248000059082 2.9818813764780803 0.6258076230707836 Z" fill="#2b2722" transform="matrix(1,0,0,1,0,0)" fill-rule="evenodd"></path></g><g clip-path="url(#SvgjsClipPath10007a0b6a90-385f-476b-a63b-9ea641d466c4)"><path d=" M 3.0079137926200086 0.66751448696014 C 2.946728448342766 0.8173383749319042 2.869502002569617 0.9562543138864524 2.797087887245241 1.1006700590681686 C 2.7942551752432756 1.106666163336865 2.796573020078138 1.11383134155504 2.8023808759732045 1.1170323310253902 C 2.808188731868272 1.1202333204957404 2.815484464849014 1.1183666486310502 2.819041280435353 1.1127696327679373 C 2.9045394850870774 0.975088374836577 2.975428275690125 0.828856243408404 3.030554661588516 0.676451672079289 C 3.035504487192968 0.6635271274454431 3.0131844402543786 0.6546816057634149 3.0079137926200086 0.66751448696014 Z" fill="#2b2722" transform="matrix(1,0,0,1,0,0)" fill-rule="evenodd"></path></g><g clip-path="url(#SvgjsClipPath10007a0b6a90-385f-476b-a63b-9ea641d466c4)"><path d=" M 3.031379632522592 0.7434118128950561 C 2.975602431035397 0.8612909930306872 2.910796380991936 0.9744036744361061 2.8530484156066747 1.0912287250448633 C 2.8502197233535957 1.0974658495790206 2.8526501821343704 1.1048298659741795 2.858635799589477 1.1081578692792182 C 2.864621417044582 1.1114858725842574 2.8721591386461105 1.1096641644816594 2.875964274886541 1.1039699428044685 C 2.941872132506674 0.9913731510050282 3.000830174563868 0.8748498970638493 3.052508054778629 0.7550530694092282 C 3.05897032709555 0.7410285635299502 3.038071063432312 0.7292498118600991 3.031379632522592 0.7434118128950561 Z" fill="#2b2722" transform="matrix(1,0,0,1,0,0)" fill-rule="evenodd"></path></g><g clip-path="url(#SvgjsClipPath10007a0b6a90-385f-476b-a63b-9ea641d466c4)"><path d=" M 3.0443500088749955 0.8340669522062064 C 3.0035597793568343 0.9244471012059982 2.949295024582111 1.0043776183741708 2.90158420556143 1.090724576140706 C 2.894296962310432 1.1041532696787075 2.913546284105519 1.119506895396218 2.9237667573443407 1.1069948362294113 C 2.983036406041708 1.0271278684175251 3.031158439017658 0.9395645793209492 3.0668075509692647 0.8467165065286922 C 3.0732239915676263 0.8313170490926224 3.0512705983775157 0.8189424850814945 3.0443500088749955 0.8340669522062064 Z" fill="#2b2722" transform="matrix(1,0,0,1,0,0)" fill-rule="evenodd"></path></g><g clip-path="url(#SvgjsClipPath10007a0b6a90-385f-476b-a63b-9ea641d466c4)"><path d=" M 3.0251006870799086 0.9730287228793141 C 3.0152468675895663 0.9926905301414392 3.0047514040393883 1.0121231788107656 2.9936601281479316 1.0311433420130545 C 2.9813597516939483 1.0494209629221323 2.9700238310641396 1.0683294621103157 2.9596988246951694 1.0877913461528839 C 2.9571327440114255 1.092712289551029 2.9585465871020666 1.098769760816439 2.9630259892361437 1.102046254449038 C 2.9675053913702216 1.1053227480816372 2.9737065469992325 1.1048353270306026 2.9776190266520244 1.1008992176609667 C 3.0066155978613573 1.0661512252760001 3.0301525426138207 1.0271908590770757 3.0474207340184964 0.9853574551718821 C 3.0547079772694943 0.970507978358529 3.0323420986123457 0.9581334143474013 3.0251006870799086 0.9730287228793141 Z" fill="#2b2722" transform="matrix(1,0,0,1,0,0)" fill-rule="evenodd"></path></g><g clip-path="url(#SvgjsClipPath10007a0b6a90-385f-476b-a63b-9ea641d466c4)"><path d=" M 2.9211543493864367 0.5123741196354467 C 2.9152794754178646 0.522059701541089 2.9104404820905794 0.532336801655225 2.9067173580401207 0.5430355393519073 C 2.90555268403575 0.5477942404242552 2.9077319597612936 0.5527415494026292 2.9120292041910147 0.555094290727902 C 2.9163264486207368 0.5574470320531747 2.9216684714328274 0.5566176340241549 2.9250500454640145 0.5530726857164886 C 2.932112539634743 0.5442497241626891 2.9382553169460017 0.5347284193302384 2.9433827328879056 0.5246570202094547 C 2.9467745620822043 0.5185188216053079 2.944548189847322 0.5107932076343173 2.9384099912937165 0.5074013783485526 C 2.932271792740112 0.5040095490627883 2.9245461787359455 0.5062359211825506 2.9211543493587158 0.5123741196856133 Z" fill="#2b2722" transform="matrix(1,0,0,1,0,0)" fill-rule="evenodd"></path></g><g clip-path="url(#SvgjsClipPath10007a0b6a90-385f-476b-a63b-9ea641d466c4)"><path d=" M 2.9778481852448246 0.5097158799589822 C 2.9727608644846946 0.5188822236709287 2.967490216850325 0.5283693894127928 2.962402896090195 0.5377190599989784 C 2.9566404936303687 0.5463275236071068 2.952278245289416 0.5557945306449185 2.9494783514563503 0.5657680717575344 C 2.948452384231986 0.5705763743755946 2.9507007060910144 0.5754885461288148 2.955010441136003 0.5778546751731222 C 2.9593201761809906 0.5802208042174298 2.9646715390598835 0.5794810083987542 2.9681776926287204 0.5760343767149141 C 2.975082515475684 0.5683621875021999 2.9807426220276456 0.5596555208662586 2.984952101621582 0.5502311191657852 L 3.000259895620533 0.5221821074072288 C 3.0033668206630817 0.5160334415057486 3.0010646186184013 0.508528596691637 2.9950442442925143 0.5051798404203871 C 2.9890238699666263 0.5018310841491371 2.9814334848334516 0.5038333037845643 2.9778481852448246 0.5097158799589822 Z" fill="#2b2722" transform="matrix(1,0,0,1,0,0)" fill-rule="evenodd"></path></g><g clip-path="url(#SvgjsClipPath10007a0b6a90-385f-476b-a63b-9ea641d466c4)"><path d=" M 3.0279880853491714 0.5076992843423539 C 3.0116649857323905 0.5328623478733432 3.000149862764192 0.5608343065005457 2.9940267818964097 0.5901963777498717 C 2.992908172818562 0.5954924000983413 2.9957757551048476 0.6008223259071636 3.000811581137643 0.6028071672489187 C 3.0058474071704406 0.6047920085906742 3.0115804100320474 0.6028519530541067 3.014376064936929 0.5982169284978247 C 3.0287672245646844 0.5736052956312487 3.036925270468317 0.5452812935613341 3.0507206177547976 0.5200738483534816 C 3.053574801404231 0.5138734289572329 3.0511349364562133 0.506521902318842 3.0451398262421607 0.5032584350652244 C 3.039144716028109 0.4999949678116071 3.031646150402151 0.5019364616778742 3.0279880853491714 0.5076992843423539 Z" fill="#2b2722" transform="matrix(1,0,0,1,0,0)" fill-rule="evenodd"></path></g><g clip-path="url(#SvgjsClipPath10007a0b6a90-385f-476b-a63b-9ea641d466c4)"><path d=" M 3.0804654031000656 0.5078826112165927 C 3.0551505151613436 0.5467913233666085 3.0340265561257436 0.5882710974728768 3.017446790080433 0.6316282513278697 C 3.0163897329303917 0.6361908454631272 3.01849754310972 0.6408995101987727 3.022604623929906 0.643150403843083 C 3.0267117047500927 0.6454012974873928 3.0318148202826456 0.6446445946354012 3.0350920017259293 0.6412987439439731 C 3.0615604590160643 0.6031789103233933 3.084000741809384 0.5624147005126668 3.102052142541699 0.5196613628864445 C 3.1047219182057804 0.5137805110264838 3.1024007493481824 0.5068360246900401 3.096731327767638 0.5037425186471527 C 3.0910619061870928 0.5006490126042655 3.083966008400446 0.5024550995191137 3.0804654031000656 0.5078826112165927 Z" fill="#2b2722" transform="matrix(1,0,0,1,0,0)" fill-rule="evenodd"></path></g><g clip-path="url(#SvgjsClipPath10007a0b6a90-385f-476b-a63b-9ea641d466c4)"><path d=" M 3.136884248647095 0.5173697769584574 C 3.102207484364972 0.5737149547426776 3.072077020282445 0.6327344955269162 3.046779089958659 0.6938677251319861 C 3.0421959181026876 0.7076172406999053 3.0614452398977745 0.7124295711486773 3.0687324831487732 0.7025299199397752 C 3.103408206994819 0.6474553839579824 3.133645664346568 0.5897084304347259 3.1591584638671257 0.5298360044067043 C 3.166812360866599 0.5150781910304711 3.14462980908369 0.5028411221750225 3.136884248647095 0.5173697769584574 Z" fill="#2b2722" transform="matrix(1,0,0,1,0,0)" fill-rule="evenodd"></path></g><g clip-path="url(#SvgjsClipPath10007a0b6a90-385f-476b-a63b-9ea641d466c4)"><path d=" M 3.186015850943128 0.5246570202094547 C 3.1284692678634642 0.6177693681785743 3.0758582190808026 0.7138430484214099 3.0284005708162063 0.8124802127645762 C 3.0255755011682366 0.8183213843240044 3.0278006774686057 0.825352134258268 3.0334720506568154 0.8285042493993545 C 3.039143423845026 0.831656364540441 3.04628915785717 0.8298339102519735 3.0497581516650447 0.8243506278715432 C 3.1071991517617525 0.7311624048443776 3.1597179101452992 0.6350284468827696 3.207098441480602 0.5363441084421909 C 3.210216510043257 0.5305347256859575 3.2080883984077313 0.5232980826100734 3.2023218846819725 0.5201014282620988 C 3.1965553709562142 0.5169047739141243 3.1892905018063553 0.5189344385111533 3.186015850943127 0.524657020209455 Z" fill="#2b2722" transform="matrix(1,0,0,1,0,0)" fill-rule="evenodd"></path></g><g clip-path="url(#SvgjsClipPath10007a0b6a90-385f-476b-a63b-9ea641d466c4)"><path d=" M 3.2324433818441367 0.5466104133995666 C 3.175199565363032 0.6520233660869502 3.1089269003256588 0.7546405839421907 3.0562204239819666 0.8624367859946803 C 3.054057319532207 0.8687463359326332 3.056734707763244 0.8756983602157927 3.062571220331198 0.8789270692959376 C 3.068407732899152 0.8821557783760822 3.0757197549117077 0.8807298108234206 3.079915422477348 0.8755446575027638 C 3.1432587547995237 0.7728870326980323 3.200969794629702 0.6668590618541447 3.2527926648846557 0.557930847883822 C 3.2559187164385945 0.5523115485433495 3.2538975398094405 0.5452220408860788 3.248278240509311 0.5420959892596247 C 3.242658941209182 0.5389699376331704 3.235569433525828 0.5409911141708355 3.2324433818268576 0.5466104134306239 Z" fill="#2b2722" transform="matrix(1,0,0,1,0,0)" fill-rule="evenodd"></path></g><g clip-path="url(#SvgjsClipPath10007a0b6a90-385f-476b-a63b-9ea641d466c4)"><path d=" M 3.274837721511888 0.567922162529842 C 3.222177076886756 0.6634812957268835 3.1598459396455207 0.7589487654868053 3.116947451073611 0.8591827339769397 C 3.113669526566489 0.8650931231351392 3.1158035607523367 0.8725417230682208 3.1217139498616913 0.8758196476634147 C 3.1276243389710467 0.8790975722586084 3.135072938935928 0.8769635381837543 3.138350863619193 0.8710531491232446 C 3.1983445832356967 0.7800313560242821 3.2434888260170327 0.6752600473967345 3.2941787067440966 0.5786467846728195 C 3.29714022925239 0.5733059190931289 3.295211390650428 0.5665755037407633 3.2898705251200773 0.5636139811434908 C 3.284529659589725 0.5606524585462183 3.2777992442052253 0.5625812970360519 3.274837721518975 0.5679221625170644 Z" fill="#2b2722" transform="matrix(1,0,0,1,0,0)" fill-rule="evenodd"></path></g><g clip-path="url(#SvgjsClipPath10007a0b6a90-385f-476b-a63b-9ea641d466c4)"><path d=" M 3.3079740540305744 0.5993627214618181 C 3.25920910548302 0.6910261585812824 3.2002695154152043 0.780077187742842 3.1567293827834586 0.8743530328202108 C 3.1537648680902657 0.8802167595743232 3.1559805594820856 0.8873749848713638 3.16173931213019 0.8905385914763312 C 3.1674980647782958 0.8937021980812986 3.1747279772586605 0.8917329740530976 3.1780869636322935 0.8860859527715023 C 3.2342725598260293 0.7977666558080202 3.284287181861016 0.7056699206829735 3.3277733564483776 0.6104539973532769 C 3.33040639914952 0.6050389358666616 3.328359618852412 0.5985100528170159 3.3231064311845806 0.5955672949104993 C 3.3178532435167503 0.592624537003983 3.3112166145466064 0.5942891028252143 3.3079740540305744 0.5993627214618181 Z" fill="#2b2722" transform="matrix(1,0,0,1,0,0)" fill-rule="evenodd"></path></g><g clip-path="url(#SvgjsClipPath10007a0b6a90-385f-476b-a63b-9ea641d466c4)"><path d=" M 3.304949160605633 0.7079838944483832 C 3.2739210871406947 0.7644944034325328 3.2355141069876394 0.8206382586682047 3.210123334905547 0.8798986707659385 C 3.2070906134841644 0.8857563909338592 3.209266997434387 0.8929638307544695 3.21503489660401 0.8961640844872921 C 3.220802795773632 0.8993643382201147 3.2280699557725407 0.8973965421390221 3.231435084035823 0.8917232541543495 C 3.26691010045257 0.8366137181432648 3.2986067155827175 0.7791616891730649 3.326306741454469 0.719762646118233 C 3.3295593538295822 0.713864913043753 3.3274150598811856 0.7064470924306635 3.321517326848677 0.7031944799794401 C 3.315619593816171 0.6999418675282165 3.30820177317541 0.702086161380889 3.304949160648077 0.7079838943714218 Z" fill="#2b2722" transform="matrix(1,0,0,1,0,0)" fill-rule="evenodd"></path></g><g clip-path="url(#SvgjsClipPath10007a0b6a90-385f-476b-a63b-9ea641d466c4)"><path d=" M 2.560871209788383 0.5892339116601173 C 2.5573483871209937 0.5963291737611084 2.553367906753205 0.6031878476256074 2.5489549629628523 0.6097665215748777 C 2.5437614060836875 0.6156750173236127 2.539156439453326 0.6220759209398165 2.5352054473949326 0.6288783482142857 C 2.5325370591808523 0.6340891922399069 2.5336060297530967 0.6404337249384584 2.5378345475519866 0.6444825307308955 C 2.5420630653508764 0.6485313365233324 2.5484480152060183 0.6493239326340027 2.553538134818825 0.6464318964226632 C 2.568216342225584 0.6353830816709064 2.57936331775889 0.6203028161994176 2.5856203378106377 0.6030292589465968 C 2.59364088855859 0.5864381768279735 2.568891760536335 0.5726428295414947 2.560871209788383 0.5892339116601173 Z" fill="#ec331e" transform="matrix(1,0,0,1,0,0)" fill-rule="evenodd"></path></g><g clip-path="url(#SvgjsClipPath10007a0b6a90-385f-476b-a63b-9ea641d466c4)"><path d=" M 2.603632203204612 0.5958336791327189 C 2.5847190902195205 0.6242468495065461 2.5683253510809307 0.6542585871063795 2.554638096064257 0.6855263523541152 C 2.553428473097227 0.6913273607389409 2.5561642027009337 0.6972354892981396 2.5613704505547417 0.70006566054524 C 2.5665766984085483 0.7028958317923406 2.5730225875667347 0.701978928036767 2.5772331333142064 0.6978092529281231 C 2.5974994504346594 0.6703367456837991 2.6143372202621586 0.6404935686312215 2.627373033418553 0.6089415506408021 C 2.629599873713966 0.6026069224558546 2.6269256132992505 0.5955904175081056 2.621047421508384 0.5923449293764685 C 2.615169229717516 0.5890994412448317 2.607806648897699 0.59057436975807 2.603632203204611 0.5958336791327189 Z" fill="#ec331e" transform="matrix(1,0,0,1,0,0)" fill-rule="evenodd"></path></g><g clip-path="url(#SvgjsClipPath10007a0b6a90-385f-476b-a63b-9ea641d466c4)"><path d=" M 2.580762175643306 0.7149961473880225 C 2.576202817307202 0.7248863899498424 2.5710606285243296 0.7344973856511635 2.5653627182072345 0.7437784666435351 C 2.5588532550191516 0.7521791978690925 2.553674820968856 0.7615312951838048 2.5500090924897245 0.7715066563721719 C 2.5490119115757146 0.7757661155724699 2.5506447113477604 0.7802104646242115 2.5541622678795086 0.7828112642128414 C 2.5576798244112586 0.7854120638014713 2.56240755759183 0.7856705450631373 2.5661876891413105 0.7834687349162618 C 2.575424007917211 0.7770784319138097 2.5827950312141126 0.7683470910127584 2.5875452699901467 0.7581696262712901 C 2.593422853383947 0.7482709101343533 2.5986140385529124 0.737980419179945 2.603082222581895 0.7273707113991495 C 2.609636158335937 0.7124295711486773 2.587636933427265 0.699825848544751 2.580762175643306 0.7149961473880225 Z" fill="#ec331e" transform="matrix(1,0,0,1,0,0)" fill-rule="evenodd"></path></g><g clip-path="url(#SvgjsClipPath10007a0b6a90-385f-476b-a63b-9ea641d466c4)"><path d=" M 2.59551998901954 0.7721483004320083 C 2.5833745836012114 0.7864477966226447 2.57159583193136 0.8009764514060799 2.5605045560399047 0.816146750249351 C 2.54874030830518 0.8289527876243338 2.5396417493145713 0.8439716418485591 2.533738832401021 0.8603285269409328 C 2.5312639195987945 0.8705948318983131 2.5441426325140792 0.8827402373166419 2.5538131251301825 0.8749488451614872 C 2.5653892231629056 0.8635958118368005 2.57519914522764 0.8505725609697589 2.5829162664156113 0.8363127064156332 C 2.593320066528671 0.820959080698123 2.604273847264448 0.8061096038847698 2.6157776086229405 0.7914892856642152 C 2.6272813699814335 0.7768689674436605 2.6073904041265097 0.7582612897084094 2.59551998901954 0.7721483004320083 Z" fill="#ec331e" transform="matrix(1,0,0,1,0,0)" fill-rule="evenodd"></path></g><g clip-path="url(#SvgjsClipPath10007a0b6a90-385f-476b-a63b-9ea641d466c4)"><path d=" M 2.6043655107015673 0.8280171653563216 C 2.5898826876366923 0.8455248818461393 2.575354032853257 0.8631700934916361 2.5608712097883815 0.8807694734185735 C 2.546045197619654 0.8963906890144343 2.5329952400412155 0.9136061807551313 2.5219600807311693 0.9321009982054732 C 2.518699018826829 0.938634586708928 2.520621487680975 0.9465674185723659 2.5265118282200243 0.9508832257750154 C 2.5324021687590728 0.9551990329776651 2.5405455541450763 0.9546413750863362 2.545792574382229 0.9495628829767312 C 2.561129927793483 0.9344233687612652 2.5747903296637427 0.9176743945896316 2.586536972181833 0.8996063097466233 C 2.5994156850971177 0.8824652470052835 2.6124777248866407 0.8652783525453839 2.625448101239045 0.8481831215226038 C 2.6365393771304992 0.8334253081463702 2.616510916119897 0.8132135202615282 2.6043655107015673 0.8280171653563216 Z" fill="#ec331e" transform="matrix(1,0,0,1,0,0)" fill-rule="evenodd"></path></g><g clip-path="url(#SvgjsClipPath10007a0b6a90-385f-476b-a63b-9ea641d466c4)"><path d=" M 2.5997823388455945 0.9066643944048222 C 2.5875452699901467 0.9233929716791242 2.575262369416138 0.9400298855163071 2.5631169639978086 0.9567584627906093 C 2.5503016018315625 0.9713310988638056 2.5397353390449955 0.9877366121376866 2.5317680685029504 1.0054317479010448 C 2.5307311521390172 1.01067477291189 2.532826454329772 1.0160436288768575 2.53714071814085 1.019198250023455 C 2.5414549819519285 1.0223528711700522 2.5472064115741313 1.0227216027038524 2.5518881929506723 1.0201437295587188 C 2.566152084479327 1.0068981242821176 2.5783285145077484 0.9915694204899922 2.588003587175743 0.9746786647474647 C 2.60056147806111 0.9567431855510896 2.613073537227916 0.938822983594234 2.625539764676163 0.9209180588768987 C 2.6365393771304992 0.9051977794109106 2.6107361195813703 0.8915857589986699 2.5997823388455945 0.9066643944048222 Z" fill="#ec331e" transform="matrix(1,0,0,1,0,0)" fill-rule="evenodd"></path></g><g clip-path="url(#SvgjsClipPath10007a0b6a90-385f-476b-a63b-9ea641d466c4)"><path d=" M 2.5992781899414377 0.9899406270278553 C 2.5922201052832388 0.9991069707398016 2.585528674373518 1.0082733144517477 2.5784247579967587 1.0174396581636946 C 2.571120162490136 1.0257914822844838 2.564642842503085 1.0348321018872624 2.559083772764552 1.0444345403953768 C 2.556661565884281 1.0492621475836756 2.558069095480723 1.0551326534914418 2.562417072188302 1.05833702174208 C 2.566765048895882 1.0615413899927186 2.5727890893377343 1.061147796378799 2.5766831526914884 1.0574049167477808 C 2.5842069515271295 1.0496479973768782 2.590974778312355 1.0411920505318464 2.59689494057633 1.0321516398213686 C 2.603265549456134 1.0235352767321393 2.609773653491616 1.0149189136429095 2.616235925808537 1.0062108871165605 C 2.6252189426462467 0.9942488085724702 2.608398701934824 0.9779785484837654 2.5992781899414377 0.9899406270278553 Z" fill="#e3ca95" transform="matrix(1,0,0,1,0,0)" fill-rule="evenodd"></path></g><g clip-path="url(#SvgjsClipPath10007a0b6a90-385f-476b-a63b-9ea641d466c4)"><path d=" M 2.0449435539614784 0.013358367957083506 C 2.0109714211386702 0.05574451510450479 1.982298047481594 0.10211750213014542 1.959559062284697 0.151449335977556 C 1.953555107153372 0.1673529423177832 1.978533393768425 0.18082746757434454 1.9888913621629243 0.1675821009105818 C 2.0216610409331337 0.12537108811706849 2.045126880835716 0.07463537567144513 2.0754216468036994 0.030086945231385442 C 2.088162864563304 0.011525099214694079 2.057684771721083 -0.004653497436891196 2.0449435539614784 0.013358367957083506 Z" fill="#e3ca95" transform="matrix(1,0,0,1,0,0)" fill-rule="evenodd"></path></g><g clip-path="url(#SvgjsClipPath10007a0b6a90-385f-476b-a63b-9ea641d466c4)"><path d=" M 2.1126828339927606 0.011616762651813883 C 2.089491984401536 0.05439303330756362 2.065384500439118 0.09663460058011675 2.0403603821055034 0.1383414644694731 C 2.0143541423706037 0.17414020254505075 1.9921291846210154 0.2125385400529789 1.9740418853495711 0.2529207608688038 C 1.9688170694337617 0.268228554867754 1.98967050137844 0.27661575936418503 1.9997534794615814 0.2670369301852008 C 2.02902478440367 0.23356592883339045 2.0534052037063524 0.19611575310705426 2.0721675947859586 0.15580334924073108 C 2.0962139697902975 0.11345484129153849 2.1191298290701637 0.07067857063578847 2.140915172625557 0.027474537273481314 C 2.1442696574671274 0.019813977789348736 2.1412704769474704 0.010858019537027197 2.1339791210571075 0.006762550157050684 C 2.126687765166744 0.0026670807770741156 2.117479152936272 0.004766064530134839 2.1126828339927606 0.011616762651813883 Z" fill="#e3ca95" transform="matrix(1,0,0,1,0,0)" fill-rule="evenodd"></path></g><g clip-path="url(#SvgjsClipPath10007a0b6a90-385f-476b-a63b-9ea641d466c4)"><path d=" M 2.1681850451685976 0.023395514321664812 C 2.1111245555617306 0.12945011106888493 2.0393520842971897 0.23211316064268506 1.9898079965341198 0.3416051362818846 C 1.98297907046872 0.35659210825091703 2.0035575121020397 0.37519978598616843 2.0148321148677333 0.3599378237057774 C 2.0836560034547533 0.25781046248074435 2.143097660617309 0.14966499590112686 2.192430024286695 0.03682420785966506 C 2.200313079878969 0.02082893808231967 2.1765722496650284 0.007675234855676449 2.1681850451685976 0.023395514321664812 Z" fill="#e3ca95" transform="matrix(1,0,0,1,0,0)" fill-rule="evenodd"></path></g><g clip-path="url(#SvgjsClipPath10007a0b6a90-385f-476b-a63b-9ea641d466c4)"><path d=" M 2.221304006979326 0.027291210399242205 C 2.1558104811574696 0.149295245205249 2.0725342485344354 0.2732700439093243 2.026381707944786 0.40384461008600114 C 2.0206985748433794 0.4199315433004671 2.043568602404686 0.42566050812043366 2.051955806901117 0.41397341988770175 C 2.1308321945424153 0.30237318519475387 2.1840886515088247 0.1627239387432503 2.245228164067507 0.040582408781564494 C 2.2532028830968995 0.024907961034136117 2.2295995480386384 0.011708426088933133 2.221304006979326 0.027291210399242205 Z" fill="#e3ca95" transform="matrix(1,0,0,1,0,0)" fill-rule="evenodd"></path></g><g clip-path="url(#SvgjsClipPath10007a0b6a90-385f-476b-a63b-9ea641d466c4)"><path d=" M 2.256548598551761 0.07303126552185452 C 2.2279496061704878 0.13586655166724748 2.1979756622324236 0.19806019375280393 2.165710132366371 0.2591538745929267 C 2.133485176550603 0.3117653400070993 2.1052500889928933 0.36671881752717594 2.081242275060786 0.42355224906668565 C 2.0799485095822803 0.4293669378594204 2.0826399854204354 0.43533897603822025 2.0878532231063396 0.438221091181648 C 2.0930664607922456 0.4411032063250754 2.099555308477902 0.4402064689561872 2.103791480592172 0.4360184765149331 C 2.185188612754258 0.3411468190962875 2.23253277802646 0.20058093827358908 2.28047275563994 0.08632246390417703 C 2.2872100182682225 0.07023553068971106 2.2639275052398777 0.05676100543314999 2.256548598551761 0.07303126552185452 Z" fill="#e3ca95" transform="matrix(1,0,0,1,0,0)" fill-rule="evenodd"></path></g><g clip-path="url(#SvgjsClipPath10007a0b6a90-385f-476b-a63b-9ea641d466c4)"><path d=" M 2.275843752065407 0.175923473688453 C 2.243119905013759 0.2619037777065104 2.191375894759821 0.33880940144974114 2.1580562353668964 0.42341475391100636 C 2.152923082888207 0.43684344744900794 2.1739140099885637 0.44770556474766454 2.1826220365149123 0.43693511088612746 C 2.2356306208080854 0.35900228422153035 2.275340731767818 0.2728139973685991 2.300134562902064 0.18188159710121837 C 2.3051760519436364 0.1664821396651484 2.281343558292575 0.1610739968751 2.275843752065407 0.175923473688453 Z" fill="#e3ca95" transform="matrix(1,0,0,1,0,0)" fill-rule="evenodd"></path></g><g clip-path="url(#SvgjsClipPath10007a0b6a90-385f-476b-a63b-9ea641d466c4)"><path d=" M 2.4448711301137003 -0.08398820226378778 C 2.4113778113209463 -0.019164489364926818 2.3815852559281208 0.04750534311917237 2.3556367740779027 0.11570059550096018 C 2.35082444362913 0.13064173575143784 2.373236154004838 0.13861645478083118 2.380660892411515 0.12555441499130782 C 2.4135091511208655 0.06170797682765844 2.442705126829484 -0.003952364768609329 2.4681078114234825 -0.0711094893484997 C 2.474753410614645 -0.08664644194025223 2.4520667099275775 -0.09961681829265634 2.4448711301137003 -0.08398820226378778 Z" fill="#e3ca95" transform="matrix(1,0,0,1,0,0)" fill-rule="evenodd"></path></g><g clip-path="url(#SvgjsClipPath10007a0b6a90-385f-476b-a63b-9ea641d466c4)"><path d=" M 2.4930860980385376 -0.07078866731858452 C 2.4497751239995917 0.012533397023008208 2.387673145351154 0.10167608962168728 2.361915719520585 0.1919645751843595 C 2.358478340628605 0.20392665372844954 2.3760777205555415 0.21488043446422544 2.384098271303495 0.20420164403980812 C 2.441021265754682 0.12926678419464616 2.47576170842296 0.026832893213644793 2.5166894330968006 -0.05768079581050109 C 2.5242058349405965 -0.07326358012081016 2.5009691536308116 -0.08632561991033383 2.4930860980385376 -0.07078866731858452 Z" fill="#e3ca95" transform="matrix(1,0,0,1,0,0)" fill-rule="evenodd"></path></g><g clip-path="url(#SvgjsClipPath10007a0b6a90-385f-476b-a63b-9ea641d466c4)"><path d=" M 2.539192806909629 -0.05827660815177782 C 2.497440111301713 0.041407379715639236 2.4404254534134058 0.14031222836754131 2.4078849332359953 0.2431127730970205 C 2.403301761380023 0.25805391334749306 2.424659342228858 0.26479117597577373 2.4323132392283324 0.25264577055744464 C 2.484736849805394 0.1574727354772436 2.528204094229424 0.057634627652619785 2.5621544979080517 -0.04558122211073204 C 2.568204284757939 -0.06098067954680203 2.54579257438223 -0.07399688761776593 2.539192806909629 -0.05827660815177782 Z" fill="#e3ca95" transform="matrix(1,0,0,1,0,0)" fill-rule="evenodd"></path></g><g clip-path="url(#SvgjsClipPath10007a0b6a90-385f-476b-a63b-9ea641d466c4)"><path d=" M 2.6045488375758064 -0.07725093963550683 C 2.554408937471459 0.04887794984087618 2.4890070750867217 0.1702403405870465 2.442258722155794 0.2971942009975046 C 2.4363922621801493 0.3129144804634929 2.4609122316096057 0.3213475166784835 2.46884111892044 0.3075980011105638 C 2.5320026765504267 0.18692599725556053 2.584644308963332 0.06103383235315507 2.6261814087360023 -0.06868040826484026 C 2.630856244029092 -0.08110080399452449 2.609452831461697 -0.08962550364663452 2.6045488375758064 -0.07725093963550683 Z" fill="#e3ca95" transform="matrix(1,0,0,1,0,0)" fill-rule="evenodd"></path></g><g clip-path="url(#SvgjsClipPath10007a0b6a90-385f-476b-a63b-9ea641d466c4)"><path d=" M 2.6522138248779283 -0.07876338634797789 C 2.6014322807137455 0.07587283207255835 2.5278265407068155 0.22294681693073826 2.4780532943509455 0.377353876758476 C 2.4734701224949727 0.3918825315419109 2.4951026936551663 0.3995364285413864 2.502481600343282 0.38697853765601964 C 2.58332875188265 0.24838342073138964 2.629618787627979 0.0796310329944559 2.6754505061877114 -0.07298858980945183 C 2.680171173199364 -0.08797556177848417 2.657026155326699 -0.09338370456853262 2.6522138248779283 -0.07876338634797789 Z" fill="#e3ca95" transform="matrix(1,0,0,1,0,0)" fill-rule="evenodd"></path></g><g clip-path="url(#SvgjsClipPath10007a0b6a90-385f-476b-a63b-9ea641d466c4)"><path d=" M 2.71009928541887 -0.09329204113141307 C 2.653275787353052 0.12008871333686821 2.580598516863354 0.3289286271892231 2.4926736125715 0.5314859462748533 C 2.484057249482272 0.5515602390040176 2.5140770251388966 0.5681513211226406 2.5226933882281255 0.5481228601120376 C 2.6102597327257135 0.34244241832419886 2.6791622877041052 0.12930773412456503 2.7285694679984402 -0.08870886927543697 C 2.729481648930978 -0.09366418086865205 2.7263801421789413 -0.09847365793798299 2.7214898774360288 -0.09968712313473516 C 2.716599612693116 -0.1009005883314876 2.711609493880529 -0.09809895879680294 2.710099285418871 -0.09329204113141307 Z" fill="#e3ca95" transform="matrix(1,0,0,1,0,0)" fill-rule="evenodd"></path></g><g clip-path="url(#SvgjsClipPath10007a0b6a90-385f-476b-a63b-9ea641d466c4)"><path d=" M 2.4908861755476708 0.3829911781413229 C 2.466607421756325 0.4242166841402467 2.445258274644989 0.46709875868238604 2.4269967598754034 0.5113199901085722 C 2.420717814432721 0.5288735383169499 2.447941855257201 0.5382232089031356 2.45669571350211 0.5229154149041849 C 2.4796115727819763 0.48317931491289723 2.4962943183377195 0.4387683796285169 2.5166894330967997 0.3975198329247579 C 2.52516830103035 0.38037877018341826 2.4999150241039385 0.36626260086702067 2.4908861755476708 0.3829911781413229 Z" fill="#e3ca95" transform="matrix(1,0,0,1,0,0)" fill-rule="evenodd"></path></g><g clip-path="url(#SvgjsClipPath10007a0b6a90-385f-476b-a63b-9ea641d466c4)"><path d=" M 2.7335651253214532 -0.02738602984251859 C 2.6811014064833953 0.16964830229519645 2.6176473986863433 0.36359080261534193 2.5435009884542428 0.5535310029020839 C 2.5365803989517235 0.570992887673344 2.560962873225501 0.5858881962052571 2.5698083949075294 0.5680596576855212 C 2.6614718320269946 0.3834494953269204 2.7069827285568078 0.17729842524524497 2.755197696481646 -0.021886223615350586 C 2.75628555592547 -0.02768556353412377 2.752680494140514 -0.0333322751795635 2.7469619249618766 -0.03478614869955593 C 2.741243355783239 -0.03624002221954831 2.735379146181447 -0.03300075245209605 2.7335651253214532 -0.02738602984251859 Z" fill="#e3ca95" transform="matrix(1,0,0,1,0,0)" fill-rule="evenodd"></path></g><g clip-path="url(#SvgjsClipPath10007a0b6a90-385f-476b-a63b-9ea641d466c4)"><path d=" M 2.7562976577270795 0.08302258016787639 C 2.701666249203878 0.2388504232709655 2.63974759742968 0.3944032760626963 2.595519989019539 0.553531002902086 C 2.5914867977862825 0.5684263114339991 2.615456786593022 0.578692616391379 2.6214149100057873 0.5637056444223467 C 2.6828752445943884 0.40916108943893004 2.7283403094056418 0.24700846917459762 2.779305180444064 0.08879737670640242 C 2.784117510892837 0.07408539504872869 2.76124748333153 0.06876891569579979 2.7562976577270795 0.08302258016787639 Z" fill="#e3ca95" transform="matrix(1,0,0,1,0,0)" fill-rule="evenodd"></path></g><g clip-path="url(#SvgjsClipPath10007a0b6a90-385f-476b-a63b-9ea641d466c4)"><path d=" M 2.67742127008578 0.4659924204529976 C 2.671783968702933 0.4822626805417024 2.6661924990386456 0.4984871089118479 2.660417702500119 0.5146657055634332 C 2.6529788847381797 0.5291053518129812 2.6490086787377507 0.5450803308977118 2.648822277704508 0.5613223950572404 C 2.649090016030613 0.5667208841253852 2.6524958866192243 0.5714616985096066 2.657526593935768 0.5734384007950856 C 2.662557301252314 0.5754151030805645 2.668279467966517 0.5742609438251515 2.672150622451409 0.5704887387691868 C 2.682200031294345 0.55753643115424 2.6890610394582377 0.5424013925501363 2.6921790834620136 0.5263069620776053 C 2.698045543437659 0.5088909090249069 2.703957835131865 0.49161235112788826 2.70982429510751 0.4741962980751897 C 2.71669905289147 0.45370951987898944 2.6844793547439787 0.4459181277238351 2.67742127008578 0.4659924204529976 Z" fill="#e3ca95" transform="matrix(1,0,0,1,0,0)" fill-rule="evenodd"></path></g><g clip-path="url(#SvgjsClipPath10007a0b6a90-385f-476b-a63b-9ea641d466c4)"><path d=" M 2.711978385879819 0.5102200288631393 C 2.70854100698784 0.5218612853773112 2.704920301221621 0.5331358881430053 2.7028120421678734 0.5450979666870955 C 2.7007037831141254 0.5570600452311858 2.7168365480471524 0.5641639616079441 2.7222905225557597 0.5527976954051306 C 2.7277127143530544 0.5409496709696875 2.732531219756044 0.528834571670745 2.7367275139020757 0.5164989743058215 C 2.7420898249735615 0.5013286754625512 2.716561557735792 0.4944080859600317 2.711978385879819 0.5102200288631393 Z" fill="#e3ca95" transform="matrix(1,0,0,1,0,0)" fill-rule="evenodd"></path></g><g clip-path="url(#SvgjsClipPath10007a0b6a90-385f-476b-a63b-9ea641d466c4)"><path d=" M 2.9211543493864367 0.008546037508311788 C 2.895660630215961 0.05985514114965007 2.8738804973133307 0.11292698398200673 2.855981645594497 0.16735294231778536 C 2.8545338722556535 0.17369161613722217 2.8579345271847947 0.1801370697941732 2.8639839588025255 0.18252017921933933 C 2.8700333904202564 0.18490328864450595 2.8769163807004423 0.18250896794880583 2.880180792994035 0.1768859397782076 C 2.9055869483589136 0.12689734473788178 2.9274713518632076 0.07519563289009051 2.945674318815893 0.022158057920552143 C 2.9522740862884946 0.00570447095760801 2.928487424355993 -0.00813670804743094 2.9211543493864367 0.008546037508311788 Z" fill="#e3ca95" transform="matrix(1,0,0,1,0,0)" fill-rule="evenodd"></path></g><g clip-path="url(#SvgjsClipPath10007a0b6a90-385f-476b-a63b-9ea641d466c4)"><path d=" M 2.9743191429157254 0.0028170726883452457 C 2.9331689100751825 0.08747560232581159 2.8976187726570526 0.17474338151760205 2.867897892420028 0.26405786847881607 C 2.8663534803531103 0.2706939125607426 2.8699019507980505 0.277460169442454 2.876239048720769 0.27996286391193326 C 2.882576146643487 0.28246555838141263 2.889790349390756 0.2799497775067695 2.893197001064999 0.27404918312484006 C 2.93395980618735 0.1892188377813676 2.9690522324017774 0.10177867804725349 2.998243300003903 0.0123042384302115 C 3.003651442793953 -0.0013077819820307424 2.9801856028913702 -0.010657452568216319 2.9743191429157254 0.0028170726883452457 Z" fill="#e3ca95" transform="matrix(1,0,0,1,0,0)" fill-rule="evenodd"></path></g><g clip-path="url(#SvgjsClipPath10007a0b6a90-385f-476b-a63b-9ea641d466c4)"><path d=" M 3.022763269433362 0.009508503598065876 C 2.9839896355318274 0.12161288719517038 2.9298623759127853 0.22862995003214504 2.8927845155979606 0.3410093239406079 C 2.888201343741988 0.3554921470054836 2.909742251465062 0.36287105369359995 2.9171211581531793 0.35045065796391306 C 2.97233792312215 0.243792154682843 3.0162689332482624 0.13166055540989752 3.0481998732340125 0.015879112477867274 C 3.053516352586943 -0.00029948417371689073 3.02826307566053 -0.006165944149362501 3.022763269433362 0.009508503598065876 Z" fill="#e3ca95" transform="matrix(1,0,0,1,0,0)" fill-rule="evenodd"></path></g><g clip-path="url(#SvgjsClipPath10007a0b6a90-385f-476b-a63b-9ea641d466c4)"><path d=" M 3.0682741659631763 0.031186906476819376 C 3.0267506289480592 0.15708663736040357 2.9615779251561207 0.27808237435809624 2.926195838428007 0.4049445713314348 C 2.9221626471947513 0.41919823580351134 2.9418244544568766 0.42556884468331446 2.949111697707873 0.41411091504338127 C 3.019005068511465 0.3055355737753761 3.0560370971077284 0.16006569906678642 3.09343577945247 0.037649178793741966 C 3.0985689319311596 0.021287255267917082 3.0733614867233063 0.015512458729390777 3.0682741659631763 0.031186906476819376 Z" fill="#e3ca95" transform="matrix(1,0,0,1,0,0)" fill-rule="evenodd"></path></g><g clip-path="url(#SvgjsClipPath10007a0b6a90-385f-476b-a63b-9ea641d466c4)"><path d=" M 3.1142433796785873 0.04860295952951732 C 3.074048962501702 0.17363188776046673 3.017675948673231 0.29568175428503296 2.9831646645977528 0.42208563407277444 C 2.981560914000075 0.42914738060988866 2.9853682690275782 0.4363191103849452 2.992116149477398 0.43894711144448384 C 2.9988640299272187 0.4415751125040228 3.0065189746563625 0.43886744164779656 3.0101137151108754 0.4325810976229528 C 3.0646765339855593 0.31094388641478277 3.107821505383722 0.18450088880018184 3.1389925077008436 0.054881904972198414 C 3.1438965015867337 0.03884080347629432 3.1191932052830387 0.033020175219208525 3.1142433796785873 0.04860295952951732 Z" fill="#e3ca95" transform="matrix(1,0,0,1,0,0)" fill-rule="evenodd"></path></g><g clip-path="url(#SvgjsClipPath10007a0b6a90-385f-476b-a63b-9ea641d466c4)"><path d=" M 3.145958928921922 0.09869702791530471 C 3.1187348880974417 0.21162638244648446 3.070932405639641 0.31534356154715826 3.0385293806179106 0.42602716186891154 C 3.0370219045276983 0.4327915214256822 3.0406813055638313 0.4396427365396348 3.0471416655525863 0.4421512805778216 C 3.053602025541342 0.4446598246160084 3.060926026095699 0.44207344097070356 3.0643784698855976 0.43606430823349285 C 3.1153250145573628 0.3312158546874109 3.150506186544483 0.21941756495309472 3.1687831247646683 0.10428849757959141 C 3.1698282324857088 0.09819384556910571 3.165982514777852 0.0923286393968481 3.15997650470728 0.0908572875321697 C 3.153970494636706 0.08938593566749131 3.1478492314202087 0.0928094316534604 3.145958928921922 0.09869702791530471 Z" fill="#e3ca95" transform="matrix(1,0,0,1,0,0)" fill-rule="evenodd"></path></g><g clip-path="url(#SvgjsClipPath10007a0b6a90-385f-476b-a63b-9ea641d466c4)"><path d=" M 2.3965644987517427 -0.23656199334913597 C 2.3765360377411393 -0.17409336095222094 2.344133012719409 -0.11199138230378375 2.3294210310617345 -0.04833112522431604 C 2.3280108256307877 -0.04156509574217948 2.331706926189611 -0.03477299707757331 2.338154153750785 -0.03228279807246337 C 2.3446013813119593 -0.029792599067353986 2.3519035264699335 -0.03233669806356748 2.3554076154851034 -0.03829397885973468 C 2.3867752546907868 -0.0987503802860365 2.410308535636366 -0.1629586579444915 2.4254384814443726 -0.22936641353525844 C 2.43102995110866 -0.24765326924059067 2.4023851270088272 -0.25452802702455063 2.3965644987517427 -0.23656199334913597 Z" fill="#2b2722" transform="matrix(1,0,0,1,0,0)" fill-rule="evenodd"></path></g><g clip-path="url(#SvgjsClipPath10007a0b6a90-385f-476b-a63b-9ea641d466c4)"><path d=" M 2.463295480974711 -0.26607762010160324 C 2.445833596203454 -0.21199619220111945 2.4209928047440785 -0.1586939035161512 2.40715162573904 -0.10374167296303205 C 2.4059758538711353 -0.09809055570862346 2.4090519623095745 -0.09241636269381223 2.414429062258629 -0.09031770554070029 C 2.4198061622076845 -0.08821904838758779 2.425912696748482 -0.09030929846746458 2.4288758603363525 -0.09526280502948153 C 2.4539379634309517 -0.14808251669007944 2.4738892665593815 -0.20317880763704965 2.488457094464005 -0.25979867465891976 C 2.493452751787017 -0.2758397761548265 2.468428633453401 -0.2818437312861514 2.463295480974711 -0.26607762010160324 Z" fill="#2b2722" transform="matrix(1,0,0,1,0,0)" fill-rule="evenodd"></path></g><g clip-path="url(#SvgjsClipPath10007a0b6a90-385f-476b-a63b-9ea641d466c4)"><path d=" M 2.5183393749649494 -0.2564071274855001 C 2.4955237573011484 -0.20820300585675272 2.4772792343483805 -0.15796535392457106 2.4638454615974297 -0.1063540809209362 C 2.462060954372484 -0.09925402025998548 2.466370061834021 -0.09205165493141573 2.4734701224949713 -0.09026714770647074 C 2.4805701831559235 -0.08848264048152546 2.487772548484494 -0.09279174794306344 2.4895570557094393 -0.0998918086040147 C 2.507889743133332 -0.14760262762469573 2.5219600807311693 -0.19613841757945233 2.5414385611190555 -0.24362007800733476 C 2.548084160310216 -0.25911119888052375 2.52516830103035 -0.27217323867004767 2.5183393749649494 -0.2564071274855001 Z" fill="#2b2722" transform="matrix(1,0,0,1,0,0)" fill-rule="evenodd"></path></g><g clip-path="url(#SvgjsClipPath10007a0b6a90-385f-476b-a63b-9ea641d466c4)"><path d=" M 2.5703125438116863 -0.25342806577911725 C 2.5616961807224574 -0.22492073683496383 2.55271316388475 -0.19655090304648942 2.5428135126758478 -0.16859355472505294 C 2.5310041608404465 -0.14141299850025732 2.521424325051942 -0.1133172560997294 2.514168688576014 -0.0845840146050637 C 2.5128984730621564 -0.07871265824683235 2.516077858256852 -0.07278751040219913 2.5216725102101716 -0.07059978499479116 C 2.527267162163491 -0.06841205958738347 2.5336225043409857 -0.0706087600685534 2.536672062388845 -0.0757843246415956 C 2.5647466328306128 -0.12961348260039607 2.5848183840034413 -0.1872502880835985 2.596253296516496 -0.24687413002507513 C 2.600836468372468 -0.2636027072993779 2.5751707059790174 -0.26983582102350107 2.5703125438116863 -0.25342806577911725 Z" fill="#2b2722" transform="matrix(1,0,0,1,0,0)" fill-rule="evenodd"></path></g><g clip-path="url(#SvgjsClipPath10007a0b6a90-385f-476b-a63b-9ea641d466c4)"><path d=" M 2.6200399584489964 -0.2581029010722099 C 2.603769698360292 -0.19985078678279036 2.575262369416138 -0.1450360513853508 2.5601379022914275 -0.08692143225161056 C 2.555783889028253 -0.07051367700722647 2.577828945655483 -0.06368475094182652 2.586536972181833 -0.07660929557567062 C 2.6170848065196646 -0.13076758540247843 2.638748092006536 -0.18947508907189997 2.6507013781654587 -0.25049483579129367 C 2.6528022872711032 -0.25896175301028823 2.647641618093901 -0.2675286689272283 2.639174700897045 -0.26962957812208654 C 2.6307077837001875 -0.27173048731694527 2.62214086772887 -0.26656981823001086 2.6200399584447975 -0.25810290105529005 Z" fill="#2b2722" transform="matrix(1,0,0,1,0,0)" fill-rule="evenodd"></path></g><g clip-path="url(#SvgjsClipPath10007a0b6a90-385f-476b-a63b-9ea641d466c4)"><path d=" M 2.6668341430984825 -0.24210763129486346 C 2.648050300852498 -0.19644749337225514 2.632250956129355 -0.1496159085775891 2.6195358095448382 -0.10190840422064507 C 2.6168317381498136 -0.08893802786823851 2.6357144061964246 -0.08009250618621036 2.641993351639107 -0.0930628825386145 C 2.661693569501879 -0.1395158096194545 2.678290535502441 -0.18722443144395073 2.691674934557856 -0.2358745175707381 C 2.6968997504736674 -0.25159479703672755 2.6721506224514124 -0.25746125701237366 2.6668341430984825 -0.24210763129486346 Z" fill="#2b2722" transform="matrix(1,0,0,1,0,0)" fill-rule="evenodd"></path></g><g clip-path="url(#SvgjsClipPath10007a0b6a90-385f-476b-a63b-9ea641d466c4)"><path d=" M 2.7055161135628962 -0.22638735182887534 C 2.697358067659264 -0.2060839005069141 2.689108358318512 -0.1857804491849526 2.6809503124148795 -0.1653853344258718 C 2.67202050024564 -0.14722364251856895 2.665267011958855 -0.12807081127244685 2.6608301879671585 -0.10832484481900573 C 2.659388307914291 -0.1024121906481594 2.662493540380494 -0.09633521131761019 2.66812981865738 -0.0940393749522796 C 2.6737660969342665 -0.09174353858694898 2.6802337058799326 -0.09392119351347886 2.6833335617799863 -0.09915850110705893 C 2.693516655644177 -0.11670658602773712 2.7016662012058044 -0.13535828181312154 2.7076243726166433 -0.15475237572001374 C 2.715507428208918 -0.17523915391621434 2.7234821472383115 -0.19563426867529513 2.7313193711120265 -0.2160293834343759 C 2.736956672494873 -0.2309246919662887 2.711474236975661 -0.24114516520510884 2.7055161135628962 -0.22638735182887534 Z" fill="#2b2722" transform="matrix(1,0,0,1,0,0)" fill-rule="evenodd"></path></g><g clip-path="url(#SvgjsClipPath10007a0b6a90-385f-476b-a63b-9ea641d466c4)"><path d=" M 2.7391107632671794 -0.1949009611783391 C 2.732632131667942 -0.17029599905709641 2.7234078599156364 -0.1464973779361479 2.7116117321313395 -0.12395346084787348 C 2.7086528881141274 -0.11813890515884029 2.710836736393742 -0.11102550422824617 2.7165485473525335 -0.1078728812964456 C 2.722260358311324 -0.10472025836464524 2.7294431474371477 -0.106663762026004 2.7327859861059367 -0.11226637261514236 C 2.7481140734670406 -0.13546125882200788 2.758849432391653 -0.16138170515302844 2.7644098719121515 -0.18862201573565504 C 2.7653219056252873 -0.1952585572642329 2.761083147389672 -0.2015148752221068 2.7545814813753324 -0.2031285133452314 C 2.7480798153609927 -0.20474215146835573 2.7414076513331054 -0.20119379791283612 2.7391107632671794 -0.19490096117833935 Z" fill="#2b2722" transform="matrix(1,0,0,1,0,0)" fill-rule="evenodd"></path></g><g clip-path="url(#SvgjsClipPath10007a0b6a90-385f-476b-a63b-9ea641d466c4)"><path d=" M 2.776051128426324 -0.15337742416322175 C 2.769680519546521 -0.1274366714584135 2.7595517097448203 -0.10296253374751652 2.7525394568051818 -0.07711344447982754 C 2.750945847290919 -0.07247129937683944 2.753291523981851 -0.06739762866445154 2.757860309715735 -0.06560450308072346 C 2.762429095449617 -0.06381137749699539 2.7675995781441474 -0.0659351576978841 2.7695888561094026 -0.07042201357010666 C 2.782734069357544 -0.09481284137256274 2.7920109951839467 -0.12109746454736808 2.7970878872452425 -0.14833593512165147 C 2.7978891100103507 -0.15389092235306104 2.7943263937027676 -0.1591416042123403 2.7888684658282723 -0.1604496043565547 C 2.7834105379537784 -0.16175760450076881 2.7778548504345286 -0.15869216103136236 2.776051128426324 -0.15337742416322175 Z" fill="#2b2722" transform="matrix(1,0,0,1,0,0)" fill-rule="evenodd"></path></g><g clip-path="url(#SvgjsClipPath10007a0b6a90-385f-476b-a63b-9ea641d466c4)"><path d=" M 2.800158612388742 -0.0720261237196975 C 2.78668563497816 -0.04089114385411316 2.7755483277817996 -0.008796702896240682 2.7668389529958186 0.023991326662940238 C 2.7657818919080297 0.029161526618127043 2.7686101025147334 0.03433982731976509 2.7735314072231767 0.03624484849722637 C 2.7784527119316187 0.0381498696746882 2.784030362418222 0.03622545068658867 2.7867299188507424 0.03169105538097655 C 2.801593909632825 0.00011570750703426835 2.8140200225156433 -0.03255071994816333 2.823899442602684 -0.06602216858837151 C 2.829078426799933 -0.08073415024604633 2.8055209234602323 -0.08646311506601287 2.800158612388742 -0.0720261237196975 Z" fill="#2b2722" transform="matrix(1,0,0,1,0,0)" fill-rule="evenodd"></path></g><g clip-path="url(#SvgjsClipPath10007a0b6a90-385f-476b-a63b-9ea641d466c4)"><path d=" M 2.8272451580575444 -0.080459159934688 C 2.8259642175321433 -0.14916626789962803 2.7916527558335957 -0.21304598575112577 2.735077572033924 -0.2520531142223258 C 2.679127079399151 -0.2862026132215179 2.612588889941554 -0.2986295986055101 2.548084160310216 -0.2869768837648407 C 2.428142552839397 -0.29398913670447996 2.324058719990245 -0.24348258285165544 2.3120508097275954 -0.11130390652538774 C 2.307806285241373 -0.03395332953985519 2.314393382927637 0.04361090270026746 2.3316209535526 0.11913797439294471 C 2.342446998592494 0.19491751032745042 2.3716680859806463 0.2668923373136688 2.4167304549180217 0.32877225508515984 C 2.4303378772248667 0.3453666157069275 2.4461423343378472 0.36003006811126304 2.4637079664417487 0.3723582194354649 C 2.463044138486029 0.3739828093796521 2.4626270386584723 0.3756975531151657 2.4624705100406366 0.3774455401955952 C 2.455458257100998 0.44119746071218247 2.396656162188861 0.47043809715329166 2.344453834749327 0.49445391767859126 C 2.3413220826022245 0.4957483564372628 2.338743391660306 0.49809999283083695 2.3371665914983293 0.5010995168697521 C 2.328275238097743 0.50494938122877 2.3191088943857956 0.5089825724620262 2.310034214110968 0.513199090569522 C 2.308643375998745 0.5121985557411194 2.3070939920278457 0.5114393575953785 2.305451042254995 0.5109533363600949 C 2.2161083101530172 0.4818960067353396 2.1204577528323645 0.4781835784034385 2.02913161105837 0.5002287142171172 C 1.9599715477517354 0.5173697769584574 1.8721579749912869 0.5504144460400242 1.8433298240172165 0.6222327490231243 C 1.8317649645516436 0.6624165651747435 1.82893640713805 0.7046105155432778 1.8350342829579043 0.7459783891344013 C 1.8314109481441792 0.7862610202056076 1.8359151395274145 0.826861084403966 1.8482796496216662 0.8653700159825032 C 1.8650540586145288 0.8962147625732032 1.8986945400373711 0.8940148400823359 1.930135098969348 0.8949773061720901 C 1.9899464754508833 0.8964525496569998 2.0497932876152642 0.894509173245628 2.1093829502564607 0.8891566779150043 C 2.1115370410287673 0.9146391134342154 2.113966122112433 0.9395715683307096 2.115661895699143 0.9627165862033743 C 2.118595125686966 1.00107773463787 2.1114453775916475 1.061163117669679 2.1327571267219234 1.0949869259667615 C 2.152602260858287 1.1267024752100956 2.201504704561521 1.1227609474139588 2.2335869075533332 1.1246858795934673 C 2.359532470155476 1.1330730840898986 2.4856613596318593 1.1365562947004384 2.6119277442639213 1.1371979387602744 C 2.7332300995868657 1.1429150709755427 2.854784135458079 1.1401124517788142 2.9756940944725123 1.1288107342638436 C 3.064607628478396 1.116527833689835 3.070153266424124 1.0367348116773418 3.0708407422025195 0.9624415958920159 C 3.0708407422025195 0.9478671093900212 3.071161564232438 0.9333384546065858 3.0708407422025195 0.9188556315417108 C 3.071436554543796 0.9188556315417108 3.0720323668850735 0.9188556315417108 3.072719842663468 0.9188556315417108 C 3.126342953378355 0.9168848676436422 3.180011895811802 0.9151890940569322 3.233726669963808 0.9134474887516623 C 3.2644339213988274 0.9123933592247885 3.3073324099707366 0.9156015795239699 3.3275900295741385 0.8865901016756595 C 3.343001871697108 0.8486104708417378 3.3480473871874974 0.8072182638249804 3.342210347794693 0.7666484942048407 C 3.3454036523201065 0.71396290148397 3.342326642724416 0.6610844915820221 3.333044004082747 0.6091248775150409 C 3.3134738602577416 0.5266277841075234 3.2245144945333015 0.5049035495102104 3.151550398586207 0.49138319253508933 C 3.0535172331377263 0.4739041160702244 2.952793567989106 0.4789348141428412 2.8569899434028097 0.5060951741927628 C 2.8525428984636703 0.5071893042813302 2.8487940643530423 0.5101682885299538 2.8467236384454297 0.5142532200963955 C 2.8329313197678294 0.5094560560957946 2.818284223529018 0.5076134576350485 2.803733486436403 0.5088450773063471 C 2.7483229386976857 0.4836376320984943 2.6961206112581504 0.4541678370645865 2.6900708244082665 0.38647438875186213 C 2.6897451200420397 0.38109831973128216 2.686975675008008 0.3761673566219089 2.6825544225644706 0.3730915269324204 C 2.6933339802102316 0.36474969348762054 2.7032110296047462 0.3553027488878895 2.712024217598379 0.34490502001818457 C 2.8038862212533693 0.22318755343957442 2.845241664699749 0.07071911227779626 2.8274743166503438 -0.08073415024604685 Z M 2.7314110345491445 0.6368530672436791 C 2.713078347125251 0.6185203798197862 2.691354112527939 0.6020667928568424 2.6709589977688584 0.5852465521454209 C 2.6995121584315713 0.5757135546849965 2.728019487375725 0.5663638840988111 2.756572648038438 0.5569683817940663 C 2.746327779474598 0.5829754840197974 2.7379199378935697 0.6096692324273248 2.7314110345491436 0.6368530672436793 Z M 2.6517555076923296 0.6154038229577241 C 2.672368207350781 0.6348697159859497 2.6941810601828635 0.6530241324483006 2.7170657066399495 0.6697602411695668 C 2.7184360780051695 0.6708263083435574 2.719989139194116 0.6716339001618099 2.721648878495922 0.6721434905346726 C 2.7194031242864947 0.6797973875341479 2.7170657066399495 0.6873137893779441 2.714590793837723 0.6944177057547023 C 2.6905291415938644 0.7638985910912562 2.6637634179549794 0.8325086737751751 2.634935266980909 0.9002021220878996 C 2.6307187488734125 0.8644533816113086 2.6267772210772766 0.8286588094161577 2.622560702969781 0.7928184055024473 C 2.6197191364190764 0.7677942871688336 2.6142651619104686 0.7415785441526667 2.6137151812877515 0.7165085941004933 C 2.6125934666142028 0.6900812761685334 2.6213878078539024 0.6641886432248829 2.638372645872888 0.6439111519018775 C 2.6444358359377675 0.6352770286393464 2.6488917544617374 0.6256199508626564 2.6515263490995316 0.6154038229577241 Z M 2.501931619720566 0.5787384481099388 C 2.475670044985838 0.5952378667914422 2.4486751627541565 0.6108206511017512 2.4233760541091844 0.629153338525644 L 2.4229635686421482 0.6294741605555622 C 2.412055619624932 0.5973919575637494 2.401468492637634 0.565034764260579 2.3908813656503356 0.5327234026759678 C 2.403760078565621 0.5390940115557706 2.4176470892892192 0.5438146785674228 2.430525802204504 0.549085326201792 C 2.454404127574125 0.5590308091292541 2.4780991260695067 0.5690221237752756 2.501885788002007 0.5789217749841779 Z M 2.4321757440726537 0.6566523696614833 C 2.4346614819692345 0.6564795861379767 2.437075218153106 0.6557429263935486 2.4392338287308526 0.6544982788891761 C 2.462699668633435 0.6412987439439735 2.485065547290584 0.6264034354120603 2.50798140657045 0.6118289489100657 C 2.510510998285603 0.6207042219824674 2.5141286111058583 0.6292325517800071 2.518751860431988 0.6372197209921575 C 2.534330680856595 0.6580491681531262 2.54249410852906 0.6834913132904313 2.5419427100232124 0.7094963411608547 C 2.5394033438353887 0.7374387354998536 2.5354413989851503 0.7652335377889771 2.5300722949162426 0.7927725737838908 C 2.525168301030351 0.8254047573984175 2.5202184754259003 0.8581286044500661 2.515314481540009 0.8907149563460358 C 2.50481901798983 0.8637659058329131 2.49455271303245 0.8367251918826711 2.4849738838534656 0.8096844779324294 C 2.467191177052289 0.7588112703311266 2.4494084702511127 0.7078922310112644 2.4323132392283333 0.6566523696614837 Z M 2.7514853272783073 0.5280027356643152 C 2.7110159197900643 0.5406981217053612 2.6702715219904634 0.5536684980577654 2.6296187876279804 0.5661347255060123 C 2.6273252706140298 0.5668807739698754 2.625205443293476 0.5680809703204833 2.623385673903857 0.5696637678351119 C 2.61070519007535 0.5651712115266672 2.5974142910573983 0.5626366679930116 2.5839703959424867 0.5621473659913157 C 2.5697091073881313 0.5611323893395924 2.555377018357857 0.5618867098148702 2.541301065963376 0.5643931202007422 C 2.5399501466505994 0.5604482044014415 2.5368819974181087 0.5573294812805037 2.5329596931855063 0.5559142522671919 C 2.490519521799194 0.5375815648432991 2.448812657909836 0.5192488774194063 2.4077474380803165 0.49885376266032555 C 2.4522803443655405 0.4783945095985127 2.484209871978986 0.43771038676021534 2.493498583505577 0.38959094561392427 C 2.5439866667742974 0.41506383656982626 2.60347617917411 0.41548767179638524 2.654322083931677 0.39073673857791713 C 2.661459861570976 0.45001763112079074 2.6979895822126707 0.5017106320288496 2.7514853272783073 0.5282318942571138 Z M 2.13880691357181 0.647990174853694 C 2.1090027339919426 0.7105839448570451 2.0977275705299574 0.7803977214411265 2.106312225112959 0.8491914193309181 C 2.0696468502651726 0.8520788176001811 2.0334397926029855 0.8541870766539289 1.996866081192319 0.8548287207137651 C 1.9589632499434204 0.8553787013364819 1.8951654977082737 0.868211582533207 1.8797202085536429 0.8249006084942602 C 1.8740520949523927 0.7928131482719564 1.8722518088526345 0.760161805505385 1.8743578974821538 0.7276457017105081 C 1.86697361536834 0.6892414352634056 1.8734707407694995 0.6494627849948049 1.8926905849060462 0.6154038229577247 C 1.931005901621984 0.5628806734882716 2.012219706909829 0.5406981217053612 2.072992565720033 0.529606845813906 C 2.1365144058329846 0.5185414990085189 2.201634632710794 0.520678890259659 2.264294158988356 0.5358857912565893 C 2.2128510482865087 0.5608529426286695 2.1693930968619854 0.5996762257493354 2.13880691357181 0.647990174853694 Z M 2.5479008334359774 1.0949410942482016 C 2.5057662068400637 1.0942383412302856 2.4636163030046303 1.093230043421972 2.4214511219296773 1.0919162008232597 C 2.378369306483529 1.0904495858293481 2.335241659318821 1.0884788219312793 2.2920223487169933 1.0862330677218526 C 2.2688314991257683 1.0850414430392994 2.2456864812531037 1.0838498183567467 2.2223581365062004 1.0824748667999549 C 2.1846844638501004 1.0804582711833266 2.165710132366371 1.0713835909084994 2.162272753474391 1.0310516785759352 C 2.1539313806965206 0.9327884739838698 2.1328946218776035 0.8178883555546211 2.152693924295406 0.7204042901780711 C 2.173089039054487 0.6205828071549745 2.268098191628812 0.5711762145475834 2.353574346742713 0.5328608978316473 C 2.3844190933334133 0.6324532222619452 2.416638791480904 0.731724724662325 2.451012580400704 0.8302170878471892 C 2.4815365049614853 0.9172973531106802 2.5092188629715633 1.0089607902301445 2.548038328591656 1.0935661426914103 C 2.5479322071434614 1.0940190056066168 2.547855659304145 1.0944782926425112 2.5478091699988576 1.094941094248202 Z M 2.538734489724032 0.9513961517191206 C 2.5500549242082857 0.8775154214008324 2.5640794300875633 0.803359700771186 2.572787456613912 0.7288831581116212 C 2.5769594295578546 0.7059664840920482 2.576004660040508 0.6824102853444021 2.5699917217817685 0.659906421679224 C 2.565456528010177 0.650052818235899 2.560376634663407 0.6404591642346191 2.5547755912199372 0.6311699341422725 C 2.5470675525895863 0.6266426436186213 2.544069716873243 0.616993980319666 2.547855001717418 0.608895718922242 C 2.5453800889151914 0.5955586888213605 2.5517506977949957 0.5913421707138651 2.566920996638266 0.5963836597554354 L 2.5980407335403246 0.5987669091205414 C 2.6212774148501086 0.5974377892823092 2.624073149682253 0.607933252832488 2.6064279380367554 0.6302074680525177 C 2.6020739247735802 0.6387321677046279 2.5935950568400297 0.6454235986143488 2.588966053265497 0.6540399617035787 C 2.5796649231956676 0.673703015064419 2.5765792594237102 0.6957343346382884 2.5801205315834697 0.7171960698788894 C 2.5857120012477557 0.7937350398736421 2.597078267450569 0.8702281781498348 2.605740462258358 0.94635466267755 C 2.6060962239346734 0.9503193213984681 2.6078316735078144 0.9540335078680885 2.6106444561442474 0.9568501262277286 C 2.5980407335403224 0.9851282965790834 2.584932862032239 1.0130856449005199 2.571595831931358 1.0410888249405161 C 2.561283695255418 1.0109315541282125 2.550100755926844 0.9812326005015063 2.5386428262869103 0.9513503200005607 Z M 2.9875645095794887 1.0815124007102002 C 2.9392505182221145 1.0928837374600318 2.8895093983650444 1.0969773389389519 2.839986375817153 1.0936578061285291 C 2.793543567676623 1.0947577673739626 2.747070205057054 1.0954757976313987 2.7005662879584453 1.0958118969008366 C 2.6644050620148185 1.0958118969008366 2.6282896677897485 1.0958118969008366 2.592265937001799 1.0955369065894782 C 2.665694393779374 0.9463072094352093 2.728011392293426 0.7918627701484183 2.778709368102791 0.6334615200702569 C 2.79062561492832 0.596154501162637 2.793008864293427 0.5436771834117435 2.841086337062585 0.554218478680482 C 2.878644034908036 0.563665801907045 2.914363286003505 0.5793104001752251 2.9467742800613284 0.6005085144258113 C 3.028217243941971 0.6519317026498309 3.0266131337923805 0.7387369776019633 3.029683858935883 0.8255422525540962 C 3.0313796325225932 0.8713739711138283 3.03188378142675 0.9174806799849188 3.0313796325225932 0.9635415571374494 C 3.0309213153369967 1.0080899875775091 3.036375289845604 1.0640963476575016 2.9875186778609306 1.0816040641473195 L 2.9875186778609306 1.0816040641473195 Z M 3.2931704089357825 0.8491914193309181 C 3.281345825547371 0.8797153438916997 3.2704837082487144 0.8735280618861357 3.2423430330530394 0.8751321720357265 C 3.223368701569311 0.8760946381254807 3.2043485383670216 0.8764612918739586 3.1853283751647328 0.8770571042152354 C 3.147517207352954 0.8784320557720272 3.1095685443854952 0.8797611756102596 3.071803208292276 0.880998632011372 C 3.0713016810467932 0.8809259214523569 3.070792288825287 0.8809259214523569 3.070290761579804 0.880998632011372 C 3.069740780957088 0.8489164290195595 3.0687783148673344 0.817200879776225 3.0672200364363023 0.7852561719400918 C 3.068499595923811 0.7398013786666148 3.0610952609212028 0.6945198257409946 3.045404138401871 0.6518400392127114 C 3.013023980251238 0.5942153173800735 2.9595936260782345 0.5513626293882609 2.896313557927061 0.5322650854903704 C 2.955146117675564 0.518627218739485 3.015678775453408 0.513808083953395 3.075928062962651 0.5179655892997341 C 3.1440798284609732 0.5228695831856256 3.2704837082487144 0.535610800945231 3.2926204283130653 0.6124705929699016 C 3.3012946478027807 0.6504197125854942 3.3049770296761567 0.6893389452723085 3.3035742090488407 0.7282415140517849 C 3.307799484476633 0.7688435735905791 3.3042372762076964 0.809878968409172 3.293078745498663 0.8491455876123583 Z M 3.1427507086227413 0.0375116836380624 C 3.1816618376799535 0.08389338282051118 3.1825784720511487 0.16240311671333246 3.177399487853899 0.21928027944595996 C 3.1686914613275503 0.31250199499645503 3.1186890563788814 0.4655341032674004 2.9990682709379812 0.4535261930047506 C 2.8681728827313866 0.44041832149666715 2.8445695476731245 0.2854154493276534 2.8397572172243524 0.1812399530413819 C 2.8309371192858053 0.12863712843400316 2.841002302185829 0.07460982409322675 2.8681728827313866 0.028711993674593483 C 2.9048545541160458 -0.006244554333617092 2.955477012784928 -0.02256186017788625 3.0056680384105827 -0.015607278172667327 C 3.0090238290697604 -0.015662934348485757 3.0122840919816323 -0.014489239700211876 3.0148343821225287 -0.012307394436366692 C 3.0627130525343276 -0.015274187876076761 3.1094745098415606 0.0029611044358472394 3.142704876904181 0.037557515356621884 Z M 3.144033996742414 0.21167221416504434 C 3.137342565832693 0.2910527507105001 3.0907775397760044 0.4499971506756514 2.9807355835140887 0.4124151414566709 C 2.891134573729812 0.3817537217402103 2.8786225145630056 0.2697868332987845 2.8729852131801588 0.18939799894501458 C 2.866449416935916 0.14920138527924404 2.869145140598886 0.10804458098295977 2.8808682687724323 0.06904390600715837 C 2.8955411016828245 0.0365846956211795 2.9277450048677602 0.01561637643632191 2.9633653621799496 0.015329131855152223 C 2.966338568625577 0.0205645625157011 2.97207593865366 0.023603045085089813 2.978077343837624 0.02312052401030673 C 3.0289963831574864 0.0218372358906343 3.093114957422552 0.01995813542968511 3.1240513674503707 0.06895224257003885 C 3.144726047065252 0.11343981552536725 3.151713247345345 0.1630680805285007 3.144125660179533 0.21153471900936527 Z M 2.284368451717518 0.049977911086309335 C 2.31138525174783 0.1034822500124839 2.3166730413620793 0.16535924152331083 2.2991262650937516 0.22267182661938 C 2.278456160023313 0.32923057227075725 2.2527903976298633 0.4708964143388893 2.1130036560226797 0.4600342970402327 C 1.98297907046872 0.4498596555199721 1.9514010163810636 0.2853237858905341 1.9485594498303611 0.18046081382586665 C 1.9397977596118858 0.12347005586496795 1.9584908348969092 0.06569145952944266 1.998974340246066 0.02463297072277726 C 2.052368292368153 -0.018769666753288727 2.1241865953512535 -0.014919802394271098 2.188625991646237 -0.009328332729983846 C 2.1916866701177686 -0.009107441337553313 2.1946023712065195 -0.007937956834922155 2.1969673644241063 -0.0059826172751236695 C 2.232640657831066 -0.00007757693329990545 2.264313929595208 0.0202423765899018 2.284551778591757 0.05020706967910815 Z M 2.2624608902459653 0.2328006364210805 C 2.245044837193267 0.31529772982859827 2.2294162211643984 0.4328102562157514 2.1185034622498478 0.42621048874315015 C 2.006765732401221 0.41938156267774995 1.9826582484388011 0.26612029581400565 1.9801375039180156 0.17972750632891088 C 1.9784417303313058 0.12766267404505505 1.980733316259293 0.07064801615674815 2.0292232744954886 0.03939078409901131 C 2.0600395079555094 0.021523609278072398 2.0954685484183626 0.013212699741311229 2.1310155214166544 0.015512458729390777 C 2.13317295087096 0.01781135042375087 2.1360843085628054 0.019258896985618723 2.139219399038847 0.019591481681206724 C 2.192750846316613 0.025595436812531847 2.244403193133431 0.030820252728340936 2.2664024180421034 0.08856821811360382 C 2.2788297396364157 0.13601945980035418 2.277414313998895 0.18603646687900954 2.2623233950902866 0.23270897298396098 Z M 2.375802730244184 -0.19563426867529513 C 2.4037977255639866 -0.23092438614392924 2.445826013402537 -0.2522064394677533 2.4908403438291105 -0.2538863829647144 C 2.4939451921943 -0.24500069499678184 2.5032746907617387 -0.23991007688248964 2.512427083270745 -0.24210763129486346 C 2.5924950955945976 -0.2592486940362036 2.6799420146065653 -0.26282356808386237 2.743327281374676 -0.20140906521382143 C 2.7996544634845875 -0.14673182497206116 2.7988294925505115 -0.057497468936262563 2.7945671427244556 0.015466627010830736 C 2.7939713303831795 0.02692455665076382 2.7928255374191857 0.039711606128929156 2.7910839321139167 0.05327779482260997 C 2.772751244690024 0.0010754673830748462 2.795667103969889 -0.07835090088094077 2.747314640889372 -0.1112580748068285 C 2.692866559240411 -0.14824427168453247 2.6264105673287985 -0.08426319257514639 2.571091683027202 -0.08375904367098919 C 2.529309947993995 -0.08983882300464396 2.4882498598818366 -0.10012687799160908 2.4485376675984796 -0.11446629510600992 C 2.42975036501124 -0.11935976969033599 2.4097557618722476 -0.1149827569077797 2.394731230009352 -0.10268754343615899 C 2.3805572549728984 -0.08805621621928583 2.3725779578429895 -0.06851843106580358 2.3724570147893225 -0.048147798350077764 C 2.3710907418936857 -0.018277068436810262 2.365235041964834 0.011217736745713525 2.3550867934551833 0.03934495238045149 C 2.3542159908025493 0.03137023335105765 2.3532993564313562 0.023533009477343325 2.3525202172158397 0.016062439352106883 C 2.345507964276201 -0.05108102833790082 2.3341875297919463 -0.13738215438587612 2.375802730244184 -0.19558843695673617 Z M 2.5591296044831124 0.37400816130361547 C 2.4295175043961894 0.35498799810132675 2.3825858245910236 0.21359714634455296 2.3625115318618617 0.09205142872414335 C 2.364565055368643 0.09072750162020865 2.36633994799967 0.08901488592360374 2.3677363477776723 0.08700993968257303 C 2.3925827127559214 0.048339624178066976 2.4059337035010437 0.003407182706093692 2.406234991367847 -0.04255632868578971 C 2.4113223121279765 -0.09452949753252601 2.4580706650589033 -0.0730344215280116 2.4893737288352003 -0.062080640792235686 C 2.5158523824088164 -0.05257659182734867 2.5437394203454424 -0.04758791059646328 2.5718708222427185 -0.04732282741600166 C 2.59635865797155 -0.04727859644314336 2.6206071948954586 -0.05214077094202493 2.643184976321661 -0.061622323606637996 C 2.6815919564747173 -0.07766342510254451 2.7248112670765456 -0.11102891621402941 2.740531546542533 -0.04713950054176258 C 2.7523561299309445 0.0012129625387546916 2.73594837468656 0.04420311454778353 2.7676639239298946 0.08801823749088744 C 2.771351576057307 0.09355587595882592 2.7778281146142656 0.09656410425030965 2.7844383329227558 0.09580962964604195 C 2.760514175834575 0.22459675879888896 2.693737361893045 0.3935783051286209 2.559221267920232 0.37382483442937664 Z" fill="#2b2722" transform="matrix(1,0,0,1,0,0)" fill-rule="evenodd"></path></g></g><g><path d=" M 0.0712890625 0.00732421875 L 0.19775390625 0.00732421875 L 0.19775390625 0.3564453125 L 0.34765625 0.3564453125 L 0.34765625 0.00732421875 L 0.47412109375 0.00732421875 L 0.47412109375 0.84130859375 L 0.34765625 0.84130859375 L 0.34765625 0.4560546875 L 0.19775390625 0.4560546875 L 0.19775390625 0.84130859375 L 0.0712890625 0.84130859375 L 0.0712890625 0.00732421875 M 0.61767578125 0.00732421875 L 0.744140625 0.00732421875 L 0.744140625 0.84130859375 L 0.61767578125 0.84130859375 L 0.61767578125 0.00732421875 M 0.88671875 0.00732421875 L 1.02392578125 0.00732421875 Q 1.04736328125 0.00732421875 1.075439453125 0.00927734375 Q 1.103515625 0.01123046875 1.131591796875 0.018798828125 Q 1.15966796875 0.0263671875 1.185791015625 0.04150390625 Q 1.2119140625 0.056640625 1.232177734375 0.0830078125 Q 1.25244140625 0.109375 1.2646484375 0.149169921875 Q 1.27685546875 0.18896484375 1.27685546875 0.24560546875 L 1.27685546875 0.2666015625 Q 1.27685546875 0.36181640625 1.24951171875 0.421630859375 Q 1.22216796875 0.4814453125 1.1689453125 0.5078125 L 1.302734375 0.84130859375 L 1.1689453125 0.84130859375 L 1.05810546875 0.529296875 L 1.0107421875 0.529296875 L 1.0107421875 0.84130859375 L 0.88671875 0.84130859375 L 0.88671875 0.00732421875 M 1.02978515625 0.43798828125 Q 1.06298828125 0.43798828125 1.0859375 0.4306640625 Q 1.10888671875 0.42333984375 1.123046875 0.406005859375 Q 1.13720703125 0.388671875 1.1435546875 0.360107421875 Q 1.14990234375 0.33154296875 1.14990234375 0.28955078125 L 1.14990234375 0.2236328125 Q 1.14990234375 0.19140625 1.14404296875 0.16796875 Q 1.13818359375 0.14453125 1.124267578125 0.12939453125 Q 1.1103515625 0.1142578125 1.08740234375 0.10693359375 Q 1.064453125 0.099609375 1.02978515625 0.099609375 L 1.0107421875 0.099609375 L 1.0107421875 0.43798828125 L 1.02978515625 0.43798828125 M 1.3984375 0.00732421875 L 1.70751953125 0.00732421875 L 1.70751953125 0.10693359375 L 1.52490234375 0.10693359375 L 1.52490234375 0.3564453125 L 1.666015625 0.3564453125 L 1.666015625 0.4560546875 L 1.52490234375 0.4560546875 L 1.52490234375 0.74169921875 L 1.71240234375 0.74169921875 L 1.71240234375 0.84130859375 L 1.3984375 0.84130859375 L 1.3984375 0.00732421875" fill="#102036" fill-rule="nonzero"></path></g><g><path d=" M 3.614330374041651 0.84912109375 Q 3.567455374041651 0.84912109375 3.535717092791651 0.83447265625 Q 3.503978811541651 0.81982421875 3.484691702166651 0.794677734375 Q 3.465404592791651 0.76953125 3.457103811541651 0.73583984375 Q 3.448803030291651 0.7021484375 3.448803030291651 0.66455078125 Q 3.448803030291651 0.63818359375 3.452220999041651 0.605224609375 Q 3.455638967791651 0.572265625 3.462474905291651 0.5390625 L 3.563549124041651 0.5390625 L 3.562084280291651 0.640625 Q 3.562084280291651 0.6728515625 3.565013967791651 0.694580078125 Q 3.567943655291651 0.71630859375 3.574047170916651 0.729248046875 Q 3.580150686541651 0.7421875 3.589672170916651 0.747802734375 Q 3.599193655291651 0.75341796875 3.612865530291651 0.75341796875 Q 3.624095999041651 0.75341796875 3.633129202166651 0.7490234375 Q 3.642162405291651 0.74462890625 3.648510061541651 0.733642578125 Q 3.654857717791651 0.72265625 3.658275686541651 0.703857421875 Q 3.661693655291651 0.68505859375 3.661693655291651 0.65673828125 L 3.663158499041651 0.00732421875 L 3.789623342791651 0.00732421875 L 3.789623342791651 0.63916015625 Q 3.789623342791651 0.70361328125 3.774974905291651 0.74462890625 Q 3.760326467791651 0.78564453125 3.735668264666651 0.808837890625 Q 3.711010061541651 0.83203125 3.679515920916651 0.840576171875 Q 3.648021780291651 0.84912109375 3.614330374041651 0.84912109375 M 3.926342092791651 0.00732421875 L 4.053783499041651 0.00732421875 L 4.053783499041651 0.61865234375 Q 4.053783499041651 0.65771484375 4.057689749041651 0.68359375 Q 4.061595999041651 0.70947265625 4.070140920916651 0.724853515625 Q 4.078685842791651 0.740234375 4.092113577166651 0.746826171875 Q 4.105541311541651 0.75341796875 4.124095999041651 0.75341796875 Q 4.142650686541651 0.75341796875 4.156566702166651 0.746826171875 Q 4.170482717791651 0.740234375 4.179515920916651 0.724853515625 Q 4.188549124041651 0.70947265625 4.193187795916651 0.68359375 Q 4.197826467791651 0.65771484375 4.197826467791651 0.61865234375 L 4.197826467791651 0.00732421875 L 4.323803030291651 0.00732421875 L 4.323803030291651 0.5849609375 Q 4.323803030291651 0.64599609375 4.314037405291651 0.689453125 Q 4.304271780291651 0.73291015625 4.288158499041651 0.76220703125 Q 4.272045217791651 0.79150390625 4.251293264666651 0.80859375 Q 4.230541311541651 0.82568359375 4.208324514666651 0.834716796875 Q 4.186107717791651 0.84375 4.164135061541651 0.84619140625 Q 4.142162405291651 0.8486328125 4.124095999041651 0.8486328125 Q 4.106029592791651 0.8486328125 4.084301077166651 0.84619140625 Q 4.062572561541651 0.84375 4.040599905291651 0.834716796875 Q 4.018627249041651 0.82568359375 3.998119436541651 0.80859375 Q 3.977611624041651 0.79150390625 3.961498342791651 0.76220703125 Q 3.945385061541651 0.73291015625 3.935863577166651 0.689697265625 Q 3.926342092791651 0.646484375 3.926342092791651 0.5849609375 L 3.926342092791651 0.00732421875 M 4.463451467791651 0.00732421875 L 4.565990530291651 0.00732421875 L 4.768138967791651 0.5654296875 L 4.771068655291651 0.5654296875 Q 4.769603811541651 0.5458984375 4.767162405291651 0.52197265625 Q 4.764720999041651 0.498046875 4.762767874041651 0.467529296875 Q 4.760814749041651 0.43701171875 4.759349905291651 0.3984375 Q 4.757885061541651 0.35986328125 4.757885061541651 0.3115234375 L 4.757885061541651 0.00732421875 L 4.871166311541651 0.00732421875 L 4.871166311541651 0.84130859375 L 4.767650686541651 0.84130859375 L 4.566478811541651 0.2978515625 L 4.562572561541651 0.2978515625 Q 4.564037405291651 0.31982421875 4.566478811541651 0.345458984375 Q 4.568920217791651 0.37109375 4.570873342791651 0.40576171875 Q 4.572826467791651 0.4404296875 4.574291311541651 0.486572265625 Q 4.575756155291651 0.53271484375 4.575756155291651 0.59619140625 L 4.575756155291651 0.84130859375 L 4.463451467791651 0.84130859375 L 4.463451467791651 0.00732421875 M 5.193431936541651 0.8486328125 Q 5.173900686541651 0.8486328125 5.151195608416651 0.845458984375 Q 5.128490530291651 0.84228515625 5.105785452166651 0.83203125 Q 5.083080374041651 0.82177734375 5.062328420916651 0.802978515625 Q 5.041576467791651 0.7841796875 5.025707327166651 0.75341796875 Q 5.009838186541651 0.72265625 5.000316702166651 0.677490234375 Q 4.990795217791651 0.63232421875 4.990795217791651 0.56982421875 L 4.990795217791651 0.2744140625 Q 4.990795217791651 0.21142578125 5.000560842791651 0.166748046875 Q 5.010326467791651 0.1220703125 5.026439749041651 0.091552734375 Q 5.042553030291651 0.06103515625 5.063549124041651 0.04296875 Q 5.084545217791651 0.02490234375 5.107006155291651 0.015380859375 Q 5.129467092791651 0.005859375 5.151683889666651 0.0029296875 Q 5.173900686541651 0 5.192943655291651 0 Q 5.242748342791651 0 5.276195608416651 0.013916015625 Q 5.309642874041651 0.02783203125 5.329906545916651 0.052001953125 Q 5.350170217791651 0.076171875 5.358715139666651 0.1083984375 Q 5.367260061541651 0.140625 5.367260061541651 0.1767578125 Q 5.367260061541651 0.20361328125 5.364574514666651 0.226318359375 Q 5.361888967791651 0.2490234375 5.356517874041651 0.2763671875 L 5.253978811541651 0.2763671875 L 5.253978811541651 0.23388671875 Q 5.253978811541651 0.1650390625 5.238842092791651 0.130859375 Q 5.223705374041651 0.0966796875 5.194408499041651 0.0966796875 Q 5.176830374041651 0.0966796875 5.163646780291651 0.103515625 Q 5.150463186541651 0.1103515625 5.141674124041651 0.126708984375 Q 5.132885061541651 0.14306640625 5.128246389666651 0.169921875 Q 5.123607717791651 0.19677734375 5.123607717791651 0.23681640625 L 5.123607717791651 0.61767578125 Q 5.123607717791651 0.65673828125 5.127269827166651 0.6826171875 Q 5.130931936541651 0.70849609375 5.139232717791651 0.72412109375 Q 5.147533499041651 0.73974609375 5.160961233416651 0.746337890625 Q 5.174388967791651 0.7529296875 5.193431936541651 0.7529296875 Q 5.205638967791651 0.7529296875 5.216869436541651 0.747314453125 Q 5.228099905291651 0.74169921875 5.236644827166651 0.729736328125 Q 5.245189749041651 0.7177734375 5.250316702166651 0.699462890625 Q 5.255443655291651 0.68115234375 5.255443655291651 0.65625 L 5.255443655291651 0.57470703125 L 5.371166311541651 0.57470703125 L 5.371166311541651 0.65185546875 Q 5.371166311541651 0.75244140625 5.325267874041651 0.80029296875 Q 5.279369436541651 0.84814453125 5.193431936541651 0.8486328125 M 5.443920217791651 0.75390625 Q 5.443920217791651 0.7021484375 5.464428030291651 0.6796875 Q 5.484935842791651 0.6572265625 5.520092092791651 0.6572265625 Q 5.556713186541651 0.6572265625 5.576732717791651 0.68115234375 Q 5.596752249041651 0.705078125 5.596752249041651 0.75390625 Q 5.596752249041651 0.798828125 5.576488577166651 0.823486328125 Q 5.556224905291651 0.84814453125 5.519603811541651 0.84814453125 Q 5.484935842791651 0.84814453125 5.464428030291651 0.82421875 Q 5.443920217791651 0.80029296875 5.443920217791651 0.75390625" fill="#102036" fill-rule="nonzero"></path></g><g></g></g><defs><clipPath id="SvgjsClipPath1001"><path d=" M 1.832421875 -0.2905517578125 h 1.5105217802916506 v 1.430224609375 h -1.5105217802916506 Z"></path></clipPath><clipPath id="SvgjsClipPath10007a0b6a90-385f-476b-a63b-9ea641d466c4"><path d=" M 1.832421875 -0.2905517578125001 L 3.3429436552916507 -0.2905517578125001 L 3.3429436552916507 1.1396728515625 L 1.832421875 1.1396728515625 Z"></path></clipPath></defs></svg>